<svg xmlns="http://www.w3.org/2000/svg" width="670" height="372"><path fill="#252E48" d="m148.938 110.813 2.537-.038 2.427-.005 2.234-.013C158 111 158 111 160 113c.319 2.247.319 2.247.414 5.008l.117 2.988.094 3.129.117 3.152c.095 2.574.18 5.148.258 7.723l1.751-.975c6.44-2.936 16.813-2.167 23.444.037 6.755 3.801 11.838 9.775 14.805 16.938 1.782 11.437 1.881 20.992-4.43 30.871-1.418 1.922-2.75 3.583-4.57 5.129h-2v2c-9.441 5.17-18.715 4.787-28.934 2.34-2.122-.557-2.122-.557-4.066.66-2.68.124-5.32.185-8 .188l-2.234.037c-1.924.005-3.847-.103-5.766-.225-2.461-2.461-2.239-3.83-2.26-7.188l.017-2.183-.006-2.302c-.003-2.516.007-5.033.019-7.55v-5.23c.002-3.656.01-7.312.024-10.968.017-4.697.021-9.394.02-14.09 0-3.601.006-7.201.013-10.802.003-1.732.005-3.465.006-5.197.002-2.416.011-4.832.022-7.248l-.002-2.19c.05-7.708 3.298-6.234 10.084-6.24ZM163 155v2h-2c-1.114 6.004-1.114 6.004.063 11.875 2.445 2.682 4.523 3.896 7.937 5.125 4.016 0 6.773-1.76 9.77-4.402 2.317-3.009 2.17-5.867 2.23-9.598l-1-3h-2l-1-3c-5.024-3.41-9.299-2.492-14 1Z"/><path fill="#2A334C" d="m82.875 133.688 2.8-.088 2.692-.026 2.472-.044C93 134 93 134 94.678 135.585c1.699 3.103 2.366 6.022 3.111 9.481l.45 2.047c.472 2.148.93 4.298 1.386 6.45.467 2.153.936 4.307 1.407 6.46.424 1.95.842 3.902 1.26 5.854.656 3.13.656 3.13 1.708 6.123 3.08-9.264 5.728-18.46 7.567-28.058 1.574-7.775 1.574-7.775 4.433-9.942 3.223-.505 6.372-.42 9.625-.313l2.68.03c6.527.115 6.527.115 7.695 1.283.634 5.952-1.342 11.26-3.063 16.875L131 158.344l-1.008 3.34c-1.26 4.212-2.472 8.438-3.684 12.665-2.386 8.293-4.835 16.566-7.496 24.776l-.683 2.17C115.61 208.89 112.006 214.201 105 218c-7.68 3.394-15.395 4.044-23.367 1.137-3.307-1.569-6.448-3.126-8.633-6.137.22-3.868 1.683-6.512 3.813-9.688l1.519-2.324c1.79-2.133 3.023-3.132 5.668-3.988l6 3c3.73-.215 5.34-.34 8-3 .648-2.57.648-2.57 1-5l-2.082.176-2.73.137-2.708.175C89 192 89 192 87.324 189.898c-1.442-3.156-2.617-6.286-3.699-9.585l-.64-1.953c-1.904-5.9-3.555-11.867-5.169-17.852a181.16 181.16 0 0 0-4.129-13.196C72.19 142.966 71.493 139.577 72 135c2.312-2.312 7.773-1.28 10.875-1.313Z"/><path fill="#28314A" d="m395.188 132.625 2.579-.004c6.288.106 10.779 1.086 16.233 4.379v2l1.688.688c5.139 2.916 8.068 6.927 10.312 12.312 2.223 9.105 1.869 18.704-2.625 27-5.054 6.384-11.036 11.634-19.063 13.688-12.345 1.164-21.467.243-31.312-7.688-5.664-5.258-8.579-10.602-9.316-18.305-.365-10.952 2.021-17.955 9.449-25.972 2.756-2.543 5.5-4.071 8.867-5.723l1.943-1.08c3.609-1.613 7.346-1.301 11.245-1.295ZM388 155c-2.128 2.737-2.944 4.55-3.375 8 .44 3.517 1.142 5.246 3.375 8 3.07 2.003 4.936 3.076 8.625 2.813L399 173l2.125-.688c2.868-2.007 3.704-4.044 4.875-7.312-.157-4.557-.724-7.724-4-11-4.697-1.566-9.862-2.103-14 1Zm-153.875-22.562 2.279-.045c8.248.151 14.801 3.812 20.596 9.607 4.111 6.2 6.145 11.229 6.125 18.688l.008 2.949C263 166 263 166 262 167c-2.664.16-5.306.26-7.973.316l-2.417.063c-2.557.066-5.115.125-7.673.184l-5.189.13c-4.25.108-8.499.209-12.748.307 1.782 3.578 1.782 3.578 4.867 5.813 4.723.44 7.17.101 11.133-2.813h2l1-3c4.974-.376 7.683.524 11.875 3.188l2.93 1.792C262 175 262 175 262.473 177.52c-.956 5.014-4.576 8.14-8.63 11.003-9.354 5.543-21.337 5.901-31.843 3.477-2.464-1.19-4.68-2.532-7-4v-2l-1.688-.563c-5.227-3.25-7.738-8.646-9.312-14.437-1.076-11.264.06-20.326 7.125-29.313 6.796-7.023 13.417-9.116 23-9.25ZM227 153l-1 3h16c-2.071-4.284-2.071-4.284-6-6-3.754 0-5.787 1.114-9 3Z"/><path fill="#262F48" d="M640.242 134.11c7.435 4.203 13.394 10.615 15.758 18.89v14h-37c3.177 6.16 3.177 6.16 7.438 7 3.577 0 5.494-.21 8.562-2l1.375-2.125C638 168 638 168 641.563 167.687 645 168 645 168 647 169v2l1.688.25c3.01.976 4.934 2.702 7.312 4.75-2.72 7.323-5.088 10.483-12 14l-2.063 1.188c-7.521 3.154-18.19 2.911-25.98.648-3.97-1.696-7.671-4.037-10.957-6.836v-2h-2c-5.455-10.196-7.88-19.297-4.5-30.625.486-1.463.981-2.923 1.5-4.375h2l.688-2.188c1.637-3.508 3.354-5.295 6.312-7.812l1.66-1.426c8.025-5.663 20.515-5.567 29.582-2.465ZM621 152l-2 4h16l-1-4c-4.775-2.513-8.22-2.451-13 0Z"/><path fill="#29324B" d="m440.938 133.75 2.537-.063 2.427-.015 2.234-.028L450 134c2.461 3.692 2.256 6.466 2.195 10.73l-.008 2.274a1205.89 1205.89 0 0 1-.062 7.184c-.01 1.624-.02 3.248-.027 4.873-.022 3.98-.057 7.96-.098 11.939h2l1 2c4.246.92 6.791 1.447 10.875-.063 3.458-3.152 4.023-6.791 4.428-11.356l.076-3.694.051-1.985c.053-2.072.094-4.143.132-6.214.044-2.09.091-4.18.143-6.268.047-1.883.084-3.765.121-5.648C471 135 471 135 472 134c1.33-.098 2.666-.13 4-.133l2.438-.004 2.562.012 2.563-.012 2.437.004 2.25.004C490 134 490 134 491 135c.099 1.744.128 3.492.13 5.238l.009 3.388-.006 3.686.003 3.756c0 2.626-.001 5.252-.006 7.878-.005 3.373-.002 6.746.004 10.12.004 3.207.001 6.414-.001 9.621l.006 3.687-.01 3.388-.002 2.998C491 191 491 191 490 192c-1.343.086-2.69.107-4.035.098l-2.451-.01-2.577-.025-2.587-.014c-2.117-.012-4.233-.03-6.35-.049l-1-3-2.25 1.438c-7.054 4.007-15.84 3.193-23.625 1.937-6.465-2.845-10.19-6.765-13.265-13.05-1.498-4.049-1.371-7.987-1.286-12.259l.01-2.783c.01-1.925.03-3.85.06-5.776.044-2.96.06-5.92.073-8.88a663801671.755 663801671.755 0 0 1 .067-8.315c.136-8.607 2.293-7.514 10.154-7.562Z"/><path fill="#2A334B" d="m336.813 132.375 2.916.019c7.528.225 14.513 1.287 20.271 6.606 1.259 3.136 1.185 4.506-.004 7.676l-1.558 2.637-1.504 2.675C355 154 355 154 352.16 154.422c-4.344-.58-8.09-2.07-12.16-3.645-3.385-.877-5.627-.575-9 .223l-1 3 2.895.297c20.756 2.4 20.756 2.4 26.793 9.266 3.159 4.932 3.394 9.77 2.312 15.437-2.117 5.703-5.722 8.99-10.84 12.09-9.202 3.877-23.837 3.144-33.16-.09-3.717-1.613-6.85-3.456-10-6 .312-5.09 1.314-8.608 4.477-12.676C314 171 314 171 317.5 170.375c3.603.643 5.513 1.581 8.5 3.625 4.454 2.287 8.09 2.166 13 2v-3c-1.002-.182-2.003-.364-3.035-.55l-4.027-.762-1.99-.358c-7.47-1.435-13.453-3.966-18.948-9.33-1.846-5.24-1.682-11.587-.188-16.875 1.248-2.232 2.487-4.211 4.188-6.125h2v-2c6.662-3.577 12.284-4.712 19.813-4.625Z"/><path fill="#29324B" d="M586.125 135.813c4.69 2.63 4.69 2.63 5.875 6.187h2c1.967 2.55 3.032 4.141 2.91 7.406-1.248 3.556-3.111 4.742-6.16 6.906l-2.89 2.114c-3.006 1.654-4.499 2.135-7.86 1.574-2.063-2.375-2.063-2.375-4-5-3.104-2.02-5.126-2.158-8.75-1.625l-2.422.336L563 154c-2.123 4.247-2.925 8.33-2 13 2.255 3.029 3.951 4.57 7.438 6 3.555 0 5.575-1.117 8.562-3l1.5-2.188L580 166c3.188-.25 3.188-.25 6 0v2l2.125.688c3.568 1.629 5.94 3.718 8.875 6.312-.423 4.794-2.587 7.782-6 11-8.184 6.49-16.825 7.493-27 7l-3.5-.125c-7.723-1.93-13.915-6.195-18.316-12.828-4.852-8.39-5.922-17.54-3.387-27.031 1.574-4.094 3.321-7.673 6.203-11.016h2l1-3c10.68-8.345 26.125-8.901 38.125-3.188Z"/><path fill="#2A334B" d="m43.75 132.5 2.698.013c8.613.223 14.078 2.447 20.552 8.112 2.354 2.795 3.886 4.633 4.45 8.29C71 152 71 152 68.77 154.334l-2.957 2.04-2.918 2.086c-3.017 1.604-4.546 2.093-7.895 1.539-2.063-2.375-2.063-2.375-4-5-3.005-1.922-5.102-2.24-8.625-1.875l-2.352.195c-2.151.503-2.151.503-3.257 2.407-.859 2.548-1.18 4.844-1.391 7.523l-.227 2.703L35 168h2l1.813 1.938c2.545 2.4 3.72 2.897 7.187 3.062 3.2-.567 3.2-.567 6-2 1.36-1.968 1.36-1.968 2-4 1-1 1-1 3.813-1.313 3.935.386 4.626 1.421 7.187 4.313 1.646 1.034 3.31 2.04 5 3 1 1 1 1 1.063 4.625-.67 4.837-3.142 6.976-6.876 9.902-8.564 5.766-18.308 6.337-28.359 5.235-7.636-1.512-13.829-5.873-18.266-12.2-5-8.325-5.83-17.288-3.875-26.75 2.405-8.108 7.18-13.44 14.313-17.812l2.645-1.637c4.45-1.808 8.342-1.897 13.105-1.863Z"/><path fill="#2A334C" d="M536 133c1.59 1.59 1.13 3.239 1.133 5.438l.004 2.71-.012 2.852.012 2.852-.004 2.71-.004 2.504C537 154 537 154 536 155c-3.554.5-7.114.902-10.68 1.305-3.91.803-3.91.803-6.32 3.695-.475 3.163-.475 3.163-.441 6.785l-.04 1.99a599.397 599.397 0 0 0-.082 6.287c-.023 2.1-.051 4.199-.091 6.298a661.208 661.208 0 0 0-.075 5.707C518 190 518 190 516 192c-1.88.227-1.88.227-4.133.195l-2.441-.02-2.551-.05-2.574-.027c-2.1-.024-4.2-.06-6.301-.098-1.005-3.014-1.127-5.024-1.13-8.174l-.009-3.195.006-3.447-.003-3.538c0-2.469.001-4.938.006-7.406.005-3.79 0-7.58-.007-11.37 0-2.396.002-4.791.004-7.186l-.006-3.454.01-3.185.002-2.813C497 136 497 136 498 134c2.959-.08 5.916-.14 8.875-.188l2.55-.076 2.442-.029 2.254-.048L516 134l2 3 2.813-2c4.794-2.786 9.788-2.57 15.187-2Z"/><path fill="#2C354D" d="M306 133c1.166 2.332 1.13 3.722 1.133 6.316l.004 2.565-.012 2.681.012 2.694-.004 2.56-.004 2.358C307 154 307 154 306 155c-2.855.4-5.697.752-8.563 1.063l-2.443.275c-1.997.224-3.996.444-5.994.662l-.06 2.998c-.076 3.664-.165 7.327-.257 10.991a1079.39 1079.39 0 0 0-.105 4.761 1045.74 1045.74 0 0 1-.164 6.836l-.035 2.156c-.151 5.03-.151 5.03-2.379 7.258-1.88.227-1.88.227-4.133.195l-2.441-.02-2.551-.05-2.574-.027c-2.1-.024-4.2-.06-6.301-.098-1.27-2.539-1.127-4.31-1.13-7.152l-.009-3.256.006-3.53-.003-3.609c0-2.522.001-5.043.006-7.565.005-3.872 0-7.743-.007-11.615 0-2.445.002-4.89.004-7.335l-.006-3.53.01-3.256.002-2.875C267 136 267 136 268 134c2.771-.054 5.541-.094 8.313-.125.785-.017 1.57-.034 2.38-.05l2.295-.02 2.11-.032C285 134 285 134 288 136a218.283 218.283 0 0 0 4.816-2.262c4.245-1.435 8.76-.954 13.184-.738Z"/><path fill="#3E455A" d="M470.266 220.793c2.472 1.72 3.622 3.427 4.734 6.207v4c-2.75.313-2.75.313-6 0l-1.938-2.438c-1.905-2.88-1.905-2.88-5.5-3.5-3.51-.061-5.475.348-8.562 1.938v5l1.617.516c5.9 1.919 11.646 4.125 17.383 6.484v2l3 1c1.515 3.03 1.17 5.651 1 9-1 2.938-1 2.938-2 5h-2v2c-6.102 2.57-12.403 2.88-18.813 1.313-2.995-1.798-4.997-3.575-7.187-6.313-.813-3.813-.813-3.813-1-7h7l.813 2.375c1.035 2.906 1.035 2.906 4.187 4.625 4.186.2 7.986.338 12-1v-7l-2.125-.516c-14.294-3.65-14.294-3.65-19.438-9.297-1.81-4.015-1.66-5.98-.437-10.187 1.967-3.279 3.345-4.694 6.813-6.313 6.336-1.366 10.805-.991 16.453 2.106Z"/><path fill="#202941" d="M289 219h8c8.554 22.69 8.554 22.69 12.063 32.313l1.16 3.175C311 257 311 257 311 260c-2.875.125-2.875.125-6 0-3.106-3.106-3.69-6.835-5-11l-14-1-1.438 5.438c-1.437 5.437-1.437 5.437-2.562 6.562-2 .04-4 .043-6 0-.335-5.047.829-8.948 2.688-13.563l.819-2.106a780.253 780.253 0 0 1 1.676-4.268c1.21-3.055 2.388-6.122 3.567-9.188l1.172-3.008c1.103-2.933 2.106-5.888 3.078-8.867Zm4 9c-.835 2.312-1.668 4.624-2.5 6.938l-.723 1.998c-1.243 2.96-1.243 2.96-1.777 6.064h10a360.79 360.79 0 0 0-4-15h-1Z"/><path fill="#3B4358" d="M322 219h7c4.108 9.4 6.985 19.212 10 29 2.54-3.048 3.802-5.837 5.008-9.605l1.05-3.229 1.067-3.353c.708-2.203 1.42-4.405 2.133-6.606l.942-2.954C350 220 350 220 351 219c2.333-.04 4.667-.042 7 0-2.254 9.553-5.72 18.624-9.172 27.792a844.377 844.377 0 0 0-3.265 8.895A556180285.012 556180285.012 0 0 0 344 260h-8c-1.513-4.107-3.025-8.215-4.535-12.323-.512-1.394-1.025-2.787-1.539-4.18C322 221.986 322 221.986 322 219Z"/><path fill="#424A5F" d="M420 230c3 2.5 3 2.5 5 5l1 1c.158 1.779.251 3.563.316 5.348l.127 3.271.12 3.444.13 3.455c.107 2.827.209 5.654.307 8.482l-2.038-.024-2.696-.019-2.663-.024c-2.368.06-4.527.341-6.853.755-4.322.36-6.177-.306-9.75-2.688-2.017-3.025-2.258-3.61-2.188-7l.02-2.063C401 247 401 247 402 244c3.71-2.815 6.714-3.435 11.313-3.688l3.238-.199L419 240l-1-3-3.875-.188-2.18-.105L410 237l-2 3c-3.125.188-3.125.188-6 0 .265-3.884.534-5.546 3.375-8.313 4.906-3.153 9.1-3.14 14.625-1.687Zm-12 17c-.77 2.345-.77 2.345-1 5 1.02 1.937 1.02 1.937 3 3 3.02.465 4.543.241 7.25-1.188 2.14-2.215 2.424-3.794 2.75-6.812-4.316-.762-7.744-1.16-12 0Z"/><path fill="#4A5163" d="M619.203 231.637c3.467 2.63 4.653 5.42 5.3 9.668.179 10.827.179 10.827-3.316 15.007-3.355 3.29-6.462 3.84-11.062 3.875-4.587-.073-8.09-.163-11.496-3.55-3.819-4.36-4.996-7.715-4.91-13.512.642-4.855 3.292-8.208 6.843-11.5 6.311-4.207 12.195-3.121 18.641.012Zm-16.765 6.3c-1.944 4.14-2.499 7.578-1.438 12.063 1.76 2.748 2.984 3.355 6 5 4.268.147 6.173-.3 9.438-3.063 2.032-3.821 2.374-6.7 1.562-10.937-1.235-3.147-1.235-3.147-4-5-4.524-1.013-7.826-.888-11.563 1.938Z"/><path fill="#31394E" d="M502.188 230.563c4.143 2.309 6.435 4.872 7.812 9.437.823 5.969.477 10.909-3 16-4.395 4.112-9.047 4.249-14.824 4.145-4.394-.292-6.577-1.666-9.988-4.395-3.31-4.244-2.868-9.308-2.672-14.457.702-4.772 1.742-6.283 5.484-9.293 5.753-3.752 10.904-4.142 17.188-1.438ZM487 239c-1.25 4.222-1.479 7.875.25 11.938 1.764 2.27 1.764 2.27 4.75 4.062 3.697-.134 6.238-.55 9.438-2.438 2.463-4.04 2.288-7.962 1.562-12.562-1.23-2.814-1.23-2.814-4-4-4.803-.737-8.907-1.228-12 3Z"/><path fill="#3D445B" d="M390 230c3.182 2.437 4.698 3.953 5.813 7.813L396 240c-2.875.188-2.875.188-6 0l-2-3c-2.195-.58-2.195-.58-4.625-.688l-2.477-.199L379 236l1 4 2.957.734 3.856 1.016 3.832.984c3.484 1.314 4.646 2.027 6.355 5.266.538 3.613.261 5.478-1.375 8.75-3.847 3.297-7.607 4.084-12.625 4.25-4.073-.726-7.006-2.096-10.063-4.875-1.211-2.746-.8-4.302.063-7.125h5l.875 1.938c.953 2.214.953 2.214 3.125 3.062 2 .04 4 .043 6 0l1-4c-1.355-.38-1.355-.38-2.738-.77l-3.575-1.042-3.55-1.02c-2.927-1.09-4.317-1.697-6.137-4.168-1.047-3.44-1.261-5.298 0-8.688 4.517-5.223 10.617-6.507 17-4.312Z"/><path fill="#42495E" d="M649 230c3.254 2.359 4.273 4.14 5 8 .08 1.733.108 3.468.098 5.203l-.01 2.969-.025 3.078-.014 3.125c-.012 2.542-.028 5.083-.049 7.625h-6l-.076-1.896c-.116-2.827-.239-5.653-.361-8.479l-.12-2.984-.127-2.852-.11-2.634c-.08-2.203-.08-2.203-1.206-4.155-1.895-.465-1.895-.465-4.063-.625L638 236c-2.447 4.804-2.436 9.538-2.625 14.813l-.117 2.677c-.094 2.17-.177 4.34-.258 6.51h-6v-30h9c3.489-1.744 7.291-.858 11 0Z"/><path fill="#505668" d="M527 230h6l.06 1.988c.095 2.963.205 5.925.315 8.887.03 1.033.062 2.065.094 3.129l.117 2.988.095 2.761C533.8 252.2 533.8 252.2 536 254c3.003.07 3.003.07 6-1 3.643-4.368 3.538-8.885 3.688-14.313l.103-2.533c.082-2.05.147-4.102.209-6.154h6c.025 4.112.043 8.223.055 12.335.005 1.4.012 2.8.02 4.2.013 2.007.018 4.016.023 6.024l.016 3.665C552 259 552 259 551 260a99.485 99.485 0 0 1-5 0c-3.839-.142-3.839-.142-6.875.625-3.705.445-5.756-.053-9.125-1.625-3.086-3.194-3.36-5.493-3.293-9.86l.03-3.378c.024-1.16.05-2.318.076-3.512l.04-3.559c.036-2.897.085-5.794.147-8.691Z"/><path fill="#5E667A" d="M562 221h6c1.478 2.957 1.06 5.742 1 9h9v6h-10c.14 2.625.287 5.25.438 7.875l.119 2.262c.159 4.063.159 4.063 1.443 7.863h9v5c-7.634 2.545-7.634 2.545-11.875.875-3.241-1.945-3.846-2.505-5.125-5.875-.227-2.106-.227-2.106-.195-4.328l.02-2.422.05-2.5.027-2.547c.024-2.068.06-4.135.098-6.203h-5v-6h5v-9Z"/><path fill="#40475E" d="M515 219h6v41h-6v-41Z"/><path fill="#30374E" d="M289 219h8a803.483 803.483 0 0 1 2.563 6.813l.748 1.947c1.802 4.9 1.802 4.9.689 8.24h-3v5c-1.866-3.588-3.425-7.278-5-11l-4 12h-3c-1.75-1.75-1.75-1.75-3-4 .635-4.022 2.262-7.897 3.563-11.75l.708-2.113c.575-1.713 1.152-3.425 1.729-5.137Z"/><path fill="#212B40" d="M616 230c4.274 1.765 5.97 3.908 8 8 .748 5.328 1.181 11.205-.95 16.246-1.237 1.629-1.237 1.629-4.05 3.754-2.813.375-2.813.375-5 0 1.074-2.915 1.778-4.778 4-7 .34-4.936-.332-8.956-3-13.125-4.072-2.545-7.324-2.333-12-1.875 2.493-6.944 6.13-6.655 13-6Z"/><path fill="#414858" d="M392.938 232.25C395 235 395.71 236.616 396 240c-2.875.188-2.875.188-6 0l-2-3c-2.195-.58-2.195-.58-4.625-.688l-2.477-.199L379 236c.345 1.965.345 1.965 1 4 1.984 1.284 1.984 1.284 4 2-2.25 1.125-2.25 1.125-5 2-2.313-.875-2.313-.875-4-2l-1 2c-1.656-2.532-2.001-3.933-1.938-7 1.183-3.784 2.617-4.915 5.938-7 5.153-2.31 10.672-1.017 14.938 2.25Z"/><path fill="#293048" d="M362 230h5c1.83 1.83 1.13 4.732 1.133 7.188l.004 3.804-.007 1.991c-.005 2.009 0 4.017.007 6.025l-.004 3.804-.004 3.52C368 259 368 259 367 260h-5v-30Z"/><path fill="#1F293F" d="m563 236 3 1 2-1 .184 3.43.254 4.445.119 2.262c.159 4.063.159 4.063 1.443 7.863h9v5c-7.634 2.545-7.634 2.545-11.938.75C564 258 564 258 563 256a74.6 74.6 0 0 1-.098-4.57l.01-2.715.025-2.84.014-2.863c.012-2.338.028-4.675.049-7.012Z"/><path fill="#394057" d="M547 230h5v29h-5l-.875-1.938c-.953-2.214-.953-2.214-3.125-3.062l1.468-1.195c1.974-2.326 1.952-3.67 2.044-6.692l.107-2.842.068-2.958.104-2.995c.083-2.439.152-4.878.209-7.318Z"/><path fill="#383F54" d="M584 230h5v30h-5v-30Z"/><path fill="#2D3547" d="M629 230h5l1 4h-3l.938 3.438c1.675 7.389 1.733 15.018 2.062 22.562h-6v-30Z"/><path fill="#3D4457" d="M411 242c0 3 0 3-1.563 4.75-2.086 3.266-1.213 5.58-.437 9.25h4l1 3c-2.889 1.444-4.796 1.377-8 1-2.875-2-2.875-2-5-5-.662-3.864-.242-7.274 1-11 3.435-2.29 4.985-2.178 9-2Z"/><path fill="#3A4155" d="M445 246h7l.813 2.375c1.035 2.906 1.035 2.906 4.187 4.625 4.186.2 7.986.338 12-1l1 2c-3.83 1.802-6.781 2.196-11 2l-1 2h2v2c-7.213-.367-7.213-.367-10.875-3.313-3.123-3.949-4.125-5.58-4.125-10.687Z"/><path fill="#3F4658" d="M282 238c.934 3.01 1.044 3.867 0 7l5-1 1 3 2 1h-4l-.621 2.371-.817 3.066-.808 3.06C283 259 283 259 282 260c-2 .04-4 .043-6 0-.412-5.448 1.01-9.42 3-14.375l.867-2.23A710.094 710.094 0 0 1 282 238Z"/><path fill="#2B3346" d="m501 230-1 5-1.793.043c-5.948.359-8.078 1.474-12.207 5.957-2.313-.188-2.313-.188-4-1-.313-2.25-.313-2.25 0-5 2.25-2.188 2.25-2.188 5-4l1.875-1.25c4.114-1.452 8.047-1.11 12.125.25Z"/><path fill="#272F49" d="M288 221h3l.375 2.938L292 227l2 1-5 14h-3c-1.75-1.75-1.75-1.75-3-4 .293-1.719.293-1.719 1-4l.973-3.234 1.09-3.516 1.097-3.547L288 221Z"/><path fill="#42495C" d="M305 243c1.528 2.967 2.866 5.972 4.125 9.063l1.07 2.597C311 257 311 257 311 260c-2.875.125-2.875.125-6 0-2.186-2.186-2.683-3.539-3.625-6.438-.26-.782-.52-1.564-.79-2.37C300 249 300 249 300 246l3-2 1 1 1-2Z"/><path fill="#374056" d="M624 238c.86 13.951.86 13.951-2.188 17.875C619 258 619 258 616.188 258.375L614 258c1.074-2.915 1.778-4.778 4-7 .343-2.533.442-5.037.559-7.59.608-3.322 1.885-5.41 5.441-5.41Z"/><path fill="#555B6F" d="M501 231c3.695.924 4.952 1.938 7.313 5 2.37 4.502 2.046 9.041 1.687 14h-1l-1-5-5 2-.438-3.313c-.445-3.618-.445-3.618-1.562-6.687l-10-1v-1l9-1 1-3Z"/><path fill="#596070" d="M351 219h7c-3.075 11.522-3.075 11.522-5 17h-1l-1-6-2 1v4h-3c.508-5.966 2.386-10.638 5-16Z"/><path fill="#505761" d="M143.379 110.902c1.394.007 2.789.019 4.184.035l2.154.014c1.76.012 3.522.03 5.283.049v1c-1.013.09-1.013.09-2.047.184l-2.703.254c-.882.08-1.763.162-2.672.246-2.84.295-2.84.295-6.578 1.316l-1 76h-1c-.023-10.153-.04-20.305-.052-30.458-.005-4.714-.012-9.428-.023-14.141-.011-4.546-.017-9.09-.02-13.636-.002-1.738-.005-3.476-.01-5.214-.008-2.426-.009-4.852-.009-7.277l-.01-2.2c.012-6.042.012-6.042 4.503-6.172Z"/><path fill="#4E5768" d="M546 230h1c.058 3.437.094 6.875.125 10.313l.05 2.958.02 2.842.032 2.619C547 251 547 251 545 254l2 1v4l4 1h-9l-3.125.625L536 261l-2-2c.375-2.125.375-2.125 1-4l3.313-.688c3.677-.96 3.677-.96 5.375-3.312 1.798-4.111 1.877-7.868 2-12.313l.103-2.533c.082-2.05.147-4.102.209-6.154Z"/><path fill="#202742" d="M342 246h4c.125 4.75.125 4.75-1 7-.361 2.33-.697 4.663-1 7h-8c-1.607-3.215-1.057-6.436-1-10l5 2 2-6Z"/><path fill="#4E5568" d="M334 235c1.506 2.854 2.632 5.681 3.625 8.75.26.8.52 1.598.79 2.422L339 248l3-2 1 3h-2l-1 4-4-2-2 3a741.505 741.505 0 0 1-2-4.813l-1.125-2.707C330 244 330 244 330 241l2-1a78.037 78.037 0 0 0 2-5Z"/><path fill="#9195A4" d="M562 221h6c1.478 2.957 1.06 5.742 1 9h9v6h-1v-5h-10v2l-3-1h-3c-2.188-1-2.188-1-4-2h5v-9Z"/><path fill="#4C5265" d="m387 229-1.813.75c-2.571 1.47-3.719 2.68-5.187 5.25-.251 2.668-.251 2.668 0 5l4 2c-2.25 1.125-2.25 1.125-5 2-2.313-.875-2.313-.875-4-2l-1 2c-1.656-2.532-2.001-3.933-1.938-7 1.183-3.784 2.617-4.915 5.938-7 3.007-1.128 5.807-1.089 9-1Z"/><path fill="#1F2944" d="M55 166c2.75-.25 2.75-.25 6 0 2.063 1.813 2.063 1.813 4 4a97.821 97.821 0 0 0 5 3l-4 3-2-1v-3c-1.36-.116-1.36-.116-3.063 2L59 176l-3-2h-3l2-8Z"/><path fill="#575F76" d="m646 229-1 3h-2.25c-3.045.823-3.045.823-5 4-3.07 6.732-2.585 14.734-2.75 22h-1l-2-24 2-1 1-3h3c2.709-1.354 5.01-1.065 8-1Z"/><path fill="#222941" d="M528 231h5c.097 6.115-.23 11.933-1 18l-4 1v-19Z"/><path fill="#2D3349" d="M613 229v1l-1.715.332-2.222.48-2.215.458L605 232l-1 3h8v1l-3.313.25c-3.72.387-3.72.387-5.625 2.813L602 241l-2-1 1-2c-4.004 3.49-5.627 5.65-6 11h-1c-.454-6.465.222-9.69 4-15 4.932-4.57 8.37-5.125 15-5Z"/><path fill="#41475B" d="m568 252 2 2c2.21.243 2.21.243 4.625.125l2.477-.055L579 254v5c-7.634 2.545-7.634 2.545-11.938.875-3.062-1.875-3.062-1.875-4-4.063L563 254h4l1-2Z"/><path fill="#393F54" d="m451 220 2 1-2 3 5 1-1 2h-2l.063 2.188c-.061 2.731-.456 5.155-1.063 7.812-2.53-.337-3.682-.606-5.313-2.625-1.002-3.464-.543-5.89.313-9.375 2.063-2.938 2.063-2.938 4-5Z"/><path fill="#3E4659" d="m375 242 2.438.563L380 243l1-1c5.019-.386 7.907.023 12 3l-1 3a798.895 798.895 0 0 1-6.813-.375c-1.264-.07-2.529-.14-3.832-.21C378 247 378 247 375 245v-3Z"/><path fill="#464D60" d="M464 219c3.468.297 4.985.988 7.75 3.188 2.465 3.08 2.979 4.928 3.25 8.812-2.75.375-2.75.375-6 0-3.32-3.77-4.527-7.036-5-12Z"/><path fill="#323950" d="M470 251h4v5h-2v2c-4.177 1.591-7.532 2.213-12 2v-2h-2l1-3 3.813.25c2.185.068 2.185.068 4.187-.25 1.774-1.92 1.774-1.92 3-4Z"/><path fill="#686C77" d="M362 230a99.984 99.984 0 0 1 5 0c1 1 1 1 1.114 3.684l-.016 3.539-.01 3.818-.026 4.022A3768.67 3768.67 0 0 1 368 259l-.999-.001-1-20h-4v-9Z"/><path fill="#222A45" d="M631 241h2c1.65 3.3 1.383 6.991 1.563 10.625l.13 2.43c.107 1.981.207 3.963.307 5.945l-5-1c-.027-2.438-.047-4.875-.063-7.313l-.025-2.091c-.015-3.144.086-5.59 1.088-8.596Z"/><path fill="#212941" d="M584 230h5c.08 2.124.14 4.25.188 6.375l.105 3.586L589 243l-3 2c-2.026-3.35-2.217-5.87-2.125-9.75l.055-2.984L584 230Z"/><path fill="#4E5669" d="M423 253v3Zm-7 0 6 3v3l5-1v2l-1.906-.035c-5.475-.058-10.679.233-16.094 1.035l2-1.375 2-1.625v-2h-4l1-2c1.207.03 1.207.03 2.438.063 2.496.233 2.496.233 3.562-1.063Z"/><path fill="#293248" d="M598 238h3l-1 14-4 1c-1.57-1.57-1.207-3.142-1.25-5.313.024-3.845.444-5.88 3.25-8.687v-1Z"/><path fill="#4C5165" d="m474 243 2 1c.143 7.429.143 7.429-1 11l-2-1 1-3-5 1-1-9c2.517-1.258 3.378-.82 6 0Z"/><path fill="#606577" d="M392 244c3.875 1.75 3.875 1.75 5 4 .04 2 .043 4 0 6l-2-1a100.644 100.644 0 0 0-6 3v-6l-6-2v-1h9v-3Z"/><path fill="#2B3449" d="m504 242 2 3h3c.286 7.429.286 7.429-2 11h-4c-1.137-3.404-.84-5.775-.063-9.25l.59-2.703L504 242Z"/><path fill="#424A5E" d="M462 236c3.558.61 6.683 1.578 10 3v2l3 1-1 2-4-1-1 2-11-3 4-2 2-3-2-1Z"/><path fill="#484F64" d="m481 237 6 4-2 9h-2l-1-3-1 5h-1c-.027-2.312-.046-4.625-.063-6.938l-.035-3.902C480 238 480 238 481 237Z"/><path fill="#43495C" d="M395 251h1c.313 2.25.313 2.25 0 5-2.912 3.265-4.411 3.961-8.813 4.25L384 260l-1-4 3.188-.375c3.272-.536 5.817-1.264 8.812-2.625v-2Z"/><path fill="#40485A" d="M650 231c1.75 1.313 1.75 1.313 3 3v4h-2l-1-2h-11l1-4c3.559-1.66 6.314-2.652 10-1Z"/><path fill="#4D5266" d="M361 219h7v8h-7v-8Z"/><path fill="#3D4456" d="M583 219h7v8h-7v-8Z"/><path fill="#20273B" d="M363 238c2.063.438 2.063.438 4 1 .188 3.375.188 3.375 0 7l-3 2c-.582 2.425-.582 2.425-.688 5.125l-.199 2.758L363 258h-1c-.029-3.146-.047-6.292-.063-9.438l-.025-2.72-.01-2.588-.016-2.396C362 239 362 239 363 238Z"/><path fill="#212942" d="m549 247 2 1v11h-4l-.875-1.938c-.953-2.214-.953-2.214-3.125-3.062a105.022 105.022 0 0 1 4-5h2v-2Z"/><path fill="#343C52" d="m407 242 4 1v3l-3 3c-.714 2.103-.714 2.103-1 4h-5c-.392-2.664-.406-4.392 1.113-6.668 1.25-1.483 2.566-2.912 3.887-4.332Z"/><path fill="#3A4355" d="M305 251h4l2 9c-2 .043-4 .04-6 0l-1-1c.176-2.69.618-5.329 1-8Z"/><path fill="#222942" d="M623 238v13l-3 1-2-1c.087-1.605.196-3.21.313-4.813l.175-2.707c.493-2.389 1.57-5.48 4.512-5.48Z"/><path fill="#3C4359" d="M282 238c.934 3.01 1.044 3.867 0 7l5-1 1 3 2 1h-4v2h-6c.142-1.438.289-2.875.438-4.313.08-.8.162-1.6.246-2.425C281 241 281 241 282 238Z"/><path fill="#333A51" d="M487.688 232.313 490 233c-1.75 5.75-1.75 5.75-4 8-2.125-.375-2.125-.375-4-1-.227-2.804-.34-4.462 1.188-6.875C485 232 485 232 487.688 232.312Z"/><path fill="#4A5264" d="m207 177 9 4v2l2 1v4h-3v-2l-1.75-.688c-2.847-1.66-4.37-3.627-6.25-6.312v-2Z"/><path fill="#20293E" d="M424 245h1l1 14h-4v-3l-5-1 2.375-2.188c2.47-2.645 3.558-4.416 4.625-7.812Zm-1 8v3Z"/><path fill="#21293D" d="M445 246h7l1 9a189.997 189.997 0 0 1-4-2.25l-2.25-1.266L445 250v-4Z"/><path fill="#373F54" d="M343 240h2v2h4c-.549 4.571-1.417 8.674-3 13l-2-3c.875-3.188.875-3.188 2-6h-4l1-6Z"/><path fill="#3F4655" d="m609 187 8 2v2h17v2c-9.05.272-17.33.513-25-5v-1Z"/><path fill="#5E6373" d="M600 243h1l.188 3.188c.946 4.441 2.404 5.928 5.812 8.812h-5l-1 4a90.488 90.488 0 0 1-4-4c0-2 0-2 2-4 .458-1.972.458-1.972.625-4.125L600 243Z"/><path fill="#5B6175" d="M297 221c2.01 3.015 2.726 5.215 3.625 8.688.26.993.52 1.987.79 3.011.192.76.386 1.519.585 2.301l-4 1v5c-1.648-2.967-2.443-5.656-3-9l1 2 4-1c-1.119-3.726-1.119-3.726-4-6h2l-1-6Z"/><path fill="#7B8290" d="m74.95 133.886 2.523.016 2.724.01 2.866.025 2.876.014c2.354.012 4.707.028 7.061.049v1H74l2 2 3 3-3 1-3-2-1 3c-.042-2.333-.04-4.667 0-7 1-1 1-1 2.95-1.114Z"/><path fill="#515A6C" d="M288 221h3l.375 2.938L292 227l2 1-2 5-4-4-2 1 2-9Z"/><path fill="#54596C" d="m337 244 3 4 2-2 1 3h-2l-1 4c-1.938-.688-1.938-.688-4-2-.875-2.5-.875-2.5-1-5l2-2Zm-4 6h2l-1 4-1-4Z"/><path fill="#5B6175" d="M619 233h2l2 5-1.438 1.063c-2.24 2.779-2.233 5.451-2.562 8.937h-1l-.367-1.863-.508-2.45-.492-2.425c-.578-2.515-.578-2.515-2.633-5.262l4 1 1-4Z"/><path fill="#61677D" d="M417 230c3.79.541 5.514 2.159 8 5v1h-5l-1 4-1-3-7-1v-1l7-1-1-4Z"/><path fill="#222A3E" d="M563 222h5v8l-5 1v-9Z"/><path fill="#222942" d="M567 231h10v4h-10v-4Z"/><path fill="#5F6679" d="m387 229-1.813.75c-2.564 1.465-3.671 2.724-5.187 5.25-.714 2.65-.714 2.65-1 5l-3-2 1-4-3-1c4.33-3.557 7.46-4.154 13-4Z"/><path fill="#848895" d="m156 187 6 1 1 3c-4.857.973-9.45 1.12-14.375 1.063l-2.23-.014c-1.799-.012-3.597-.03-5.395-.049v-1h14l1-4Z"/><path fill="#2E374D" d="m481 246 3 2-1 2h2l1-2 1 7-4 1c-2.43-3.644-2.162-5.712-2-10Z"/><path fill="#41465E" d="M245 168c5.625-.25 5.625-.25 9 2l-1 4c-6.75-1.875-6.75-1.875-9-3l1-3Z"/><path fill="#2D344A" d="M601 254c3.735.498 5.812.875 9 3v3l-8-1-1-5Z"/><path fill="#222A41" d="M383 230c2.007.287 4.009.619 6 1l-1 4-9 1c2.875-4.875 2.875-4.875 4-6Z"/><path fill="#52586C" d="m451 220 2 1-2 3 5 1-1 2h-2l-1 4-3-1v-3h-2c1.074-2.915 1.778-4.778 4-7Z"/><path fill="#212A42" d="M230 186v5h8v1c-2.104.081-4.208.14-6.313.188l-3.55.105C225 192 225 192 223.082 190.488L222 189c6.875-3 6.875-3 8-3Z"/><path fill="#575D6D" d="M583.063 165.938 586 166l-1 3v-2h-2l-.25 1.813c-.955 2.784-2.321 3.62-4.75 5.187l-4-2c6-6 6-6 9.063-6.063Z"/><path fill="#4C5265" d="m612 136 2 1-7 9-4-2c2.627-3.6 4.94-6.077 9-8Z"/><path fill="#3C4255" d="m303 235 2 8-3-2-4 2v-7c3-1 3-1 5-1Z"/><path fill="#5D6272" d="m653 174 3 2c-3.346 9.007-3.346 9.007-7.188 11.313L647 188v-3h3l.402-2.152.535-2.786.528-2.777C652 175 652 175 653 174Z"/><path fill="#535C6B" d="m486 248 1.875 2.375c2.024 2.593 2.024 2.593 4.125 4.625h-2l1 3-5 1-2-3 3-1-1-7Z"/><path fill="#656C80" d="M407 241h14v1l-7 1c.959 2.33.959 2.33 4 4h-9l1-4-3-2Z"/><path fill="#676D7C" d="M536 133v1l-2.012.078c-5.745.37-8.583 1.02-12.988 4.922-2.813.25-2.813.25-5 0l1-3h2l2.438-1.5c4.897-2.062 9.32-1.752 14.562-1.5Z"/><path fill="#4B5264" d="m556 135 1 2-1 3h-3v2l-3 1-1-2-2 1c1-3 1-3 2.848-4.168l2.215-1.02 2.222-1.042L556 135Z"/><path fill="#555B6C" d="M352 135c2.8 1.142 5.473 2.328 8 4 1 2.75 1 2.75 1 5l-1-2-4 1c-4-5.75-4-5.75-4-8Z"/><path fill="#212A42" d="M408 185h3l-1 3h-2v-3Zm-1 2 1 2-4 1 1 2h-6c.375-1.938.375-1.938 1-4 2.463-1.231 4.28-1.072 7-1Z"/><path fill="#595F6E" d="M357 144h3c-2.6 7-2.6 7-5 10-3.188.313-3.188.313-6 0 1.375-1.5 1.375-1.5 3-3h2v-2h2l1-5Z"/><path fill="#676E80" d="m646 229-1 3-2.25.438c-2.672.51-2.672.51-4.938 1.187C636 234 636 234 634 233l1-3h3c2.709-1.354 5.01-1.065 8-1Z"/><path fill="#707482" d="m81 198 1 2c-1.313 2.625-1.313 2.625-3 5h-2l1 4-1.938.313L74 210l-1 3c.56-3.953 1.722-6.486 4-9.75l1.625-2.36C80 199 80 199 81 198Z"/><path fill="#5D6374" d="M285 230h1v7c2.075.15 2.075.15 4-1l-2 7c-3-1-3-1-4.25-2.813-.892-2.6-.631-3.623.25-6.187l.563-2.25L285 230Z"/><path fill="#575E71" d="M189 137c3.973 2.097 6.439 4.3 9 8v2c-2.375-.688-2.375-.688-5-2-1.313-2.625-1.313-2.625-2-5h-2v-3Zm5 6 1 2Z"/><path fill="#495065" d="M335 254h4l1 5 4 1h-8l-1-6Z"/><path fill="#545B6E" d="m452 250 3 2-1 4h-2l-1 2-5-5 1-2 5 3v-4Z"/><path fill="#293045" d="m474 243 1 4-4 2v-2h-2l-1-4c2.49-1.245 3.41-.777 6 0Z"/><path fill="#3B4454" d="m613 230 5 1c1.125 4.75 1.125 4.75 0 7-2.5-1.375-2.5-1.375-5-3v-2h2v-2l-2-1Z"/><path fill="#1F2842" d="m179 185 6 1v3c-3 2-3 2-7 2l1-6Z"/><path fill="#656C7B" d="m215 138 1 2-1.938 2.25c-1.845 2.461-2.623 3.785-3.062 6.75l-4 1c1.51-4.98 4.557-8.243 8-12Z"/><path fill="#52576D" d="m73 142 6 1-3 7 2 1-2 3a664.623 664.623 0 0 1-1.5-4.313l-.844-2.425C73 145 73 145 73 142Z"/><path fill="#4D5367" d="m380 254 7 1-4 1c.348 1.975.348 1.975 1 4l2 1-10-2 4-2v-3Z"/><path fill="#545A6B" d="M502 250c.553 2.076 1 3.844 1 6l2 1-2 2c-2.125-.375-2.125-.375-4-1v-2l-2-2 5-4Z"/><path fill="#2A314A" d="m342 251 3 2-1 6h-4c-.625-1.875-.625-1.875-1-4l2-2 1-2Z"/><path fill="#4C5165" d="M638 168c6.75-.125 6.75-.125 9 1v4c-4.75-1.875-4.75-1.875-7-3l-1 2-1-4Z"/><path fill="#555C70" d="m279 246 1.313 1.438c1.71 1.799 1.71 1.799 4.687 2.562l-1 4-1.813-.563c-2.351-.658-2.351-.658-5.187.563l2-8Z"/><path fill="#1F273C" d="M412 242c6.055-.195 6.055-.195 8 0l2 2c-3 2-3 2-6.188 1.625L413 245l-1-3Z"/><path fill="#5D6275" d="m462 236 5 1-2 1v3h2v3l-9-2 4-2 2-3-2-1Z"/><path fill="#5F6A7D" d="m506 238 4 2v10h-1l-.375-2.438L508 245l-2-1v-6Z"/><path fill="#202942" d="m646 231 1 3-7 2-1-3c3-2 3-2 7-2Z"/><path fill="#21293F" d="M413 230c1.675.286 3.344.618 5 1l1 4h-6c-.563-1.938-.563-1.938-1-4l1-1Z"/><path fill="#5E6673" d="M420 178h3c-1.583 4.274-4.506 6.265-8 9l1-5 4-1v-3Z"/><path fill="#4E5566" d="M546 180h4l2 9c-2.438-1.125-2.438-1.125-5-3-.813-3.188-.813-3.188-1-6Z"/><path fill="#676A7A" d="M599 155h1l-1 13h-2v-10h2v-3Z"/><path fill="#1E283F" d="m557 159 2 1v4h-2l-1 4-3-2c0-2 0-2 1.438-3.5L556 161l1-2Z"/><path fill="#515665" d="M425 157h2v12h-2c-1.532-4.084-.63-7.795 0-12Z"/><path fill="#787B88" d="m539 153 1 2h2v2h-2l-1 13h-1a1420.4 1420.4 0 0 1-.063-6.813l-.035-3.832C538 156 538 156 539 153Z"/><path fill="#6A7082" d="m596 237 3 1-.875 1.563c-1.413 3.06-2.25 6.186-3.125 9.437h-1c-.286-8.571-.286-8.571 2-12Z"/><path fill="#838798" d="m391 235 1 3c2 1.209 2 1.209 4 2-2.875.188-2.875.188-6 0l-2-3c-3.568-.736-3.568-.736-7-1v-1c6.625-1.125 6.625-1.125 10 0Z"/><path fill="#505564" d="M322 219h2l1 2 2 1-1 5 2 1h-2l-1 2a980.736 980.736 0 0 1-1.5-4.375l-.844-2.46C322 221 322 221 322 219Z"/><path fill="#33394A" d="M361 219h7v4h-7v-4Z"/><path fill="#6D7383" d="M200 170c1.017 2.655 1.13 3.692.004 6.36l-1.441 2.39-1.434 2.422L196 183h-1c-.082-3.044.024-5.072 1-8h3l1-5Z"/><path fill="#353A52" d="m97 161 5 2-1 6h-3l.063-2.313c.066-2.789.066-2.789-1.063-5.687Z"/><path fill="#575D70" d="m26 137 2 1-2 3 2 1-7 1v2l-2-1c2.22-2.908 3.93-4.953 7-7Z"/><path fill="#202A3D" d="m459 236 5 1-2 4h-4l1-5Z"/><path fill="#53586D" d="M452 232c2.9.468 3.867.867 6 3l-4 1 2 1-5 2-1-2h2l-.563-1.938L451 233l1-1Z"/><path fill="#3C4251" d="M629 230h5l1 4-6 1v-5Z"/><path fill="#20283C" d="M458 219c2.875-.125 2.875-.125 6 0l2 2h-5v2h-4l1-4Z"/><path fill="#202940" d="m389 255 1 4-6 1-1-4c2.076-.553 3.844-1 6-1Z"/><path fill="#5A606E" d="m405 242 2 1c-.96 1.02-.96 1.02-1.938 2.063-2.388 3.401-2.74 5.841-3.062 9.937h-1c-.125-7.625-.125-7.625 1-11l3-2Z"/><path fill="#232A40" d="m407 242 4 1v3l-7 1 3-5Z"/><path fill="#21283B" d="M557 231c2.375.313 2.375.313 5 1l2 3h-7v-4Z"/><path fill="#1F283F" d="m95 201 1 3c-1.977.73-3.98 1.394-6 2l-2-1c2-3 2-3 4.625-3.688L95 201Z"/><path fill="#494E5F" d="M25 185c2.938.75 2.938.75 6 2 .875 2.125.875 2.125 1 4-5.75-1.625-5.75-1.625-8-5l1-1Z"/><path fill="#383E55" d="m30 135 2 1v4l-6 1c1.75-4.875 1.75-4.875 4-6Z"/><path fill="#484C5D" d="M140 111h15v1c-.996.09-.996.09-2.012.184-6.537.615-6.537.615-12.988 1.816v-3Z"/><path fill="#212840" d="M295 228h3l2 5-4 1-1-6Z"/><path fill="#4F5668" d="m410 187 3 2c-2.75 1.625-2.75 1.625-6 3-2.375-.813-2.375-.813-4-2 3.313-1.625 3.313-1.625 7-3Z"/><path fill="#202841" d="m95 185 3 2-3 4-4-1c1.75-3.875 1.75-3.875 4-5Z"/><path fill="#484F63" d="M63 169c5.875 2.75 5.875 2.75 7 5l-5 2-2-7Z"/><path fill="#1F273F" d="M245 170c2 1 2 1 5 3l-1 2h-6c0-3 0-3 2-5Z"/><path fill="#1E2742" d="M352 141h4v2l4-1-1 3c-3 1-3 1-6 0-.688-2.063-.688-2.063-1-4Z"/><path fill="#212940" d="M459 255h6l-2 2 1 2-4 1v-2h-2l1-3Z"/><path fill="#20293F" d="M409 256h4l1 3-6 1c0-3 0-3 1-4Z"/><path fill="#677283" d="M608.188 234.938 612 235v1l-3.313.25c-3.72.387-3.72.387-5.625 2.813L602 241l-2-1c.313-1.938.313-1.938 1-4 2.75-.917 4.36-1.109 7.188-1.063Z"/><path fill="#747E92" d="M491 229c6.625-.25 6.625-.25 10 2-3 2-3 2-6 3v-3l-4-2Z"/><path fill="#20293F" d="m352 219 4 1v3l-6 3v-3h2v-4Z"/><path fill="#21293C" d="M499 135h4c-1.372 2.954-2.989 5.44-5 8-.125-5.75-.125-5.75 1-8Z"/><path fill="#4C5669" d="m545 254 2 1v4l4 1h-5v-2h-3v-3l2-1Z"/><path fill="#626877" d="M470 253c-1.207 1.52-1.207 1.52-3 3-2.262.074-2.262.074-4.688-.313l-2.449-.363L458 255v-1a367.08 367.08 0 0 1 4.313-1.063l2.425-.597C467 252 467 252 470 253Z"/><path fill="#6E7385" d="M445 246h7l-1 4-4-2-2 2v-4Z"/><path fill="#20273E" d="m332 243 5 1-2 6h-2l-1-7Z"/><path fill="#212844" d="M330 235h4l-2 6h-2v-6Z"/><path fill="#868F9D" d="M613 229v1l-6.055 1.367c-2.152.538-2.152.538-3.945 2.633l-3-2c4.554-2.666 7.74-3.316 13-3Z"/><path fill="#68717D" d="M464 218v1l-6 1-1 3-3-1v-3c3.473-1.158 6.36-1.069 10-1Z"/><path fill="#444D60" d="M349 185c4.75.75 4.75.75 7 3l-4 2v-2l-3-1v-2Z"/><path fill="#656978" d="M602 179h5v7l-2-1v-2h-2l-1-4Z"/><path fill="#5A5E6C" d="M55 166c2.875-.188 2.875-.188 6 0l2 3h-7l-1-3Z"/><path fill="#5E6571" d="M348 244c1.136 3.41.867 4.003-.438 7.188l-.87 2.167L346 255l-2-3c.875-3.188.875-3.188 2-6h2v-2Z"/><path fill="#212940" d="m388 244 5 1-1 3h-4v-4Z"/><path fill="#20273E" d="M420 236h5v2l-2 1-2 3c-1-1-1-1-1.063-3.563L420 236Z"/><path fill="#2E3549" d="M529 231h4v5l-2 1v-3h-2v-3Z"/><path fill="#5D6370" d="M584 230h5l-1 3h-2l-2 4v-7Z"/><path fill="#23293F" d="m453 220 2 2c-.375 2.125-.375 2.125-1 4l-4-2 3-4Z"/><path fill="#6F7381" d="m609 187 8 2v2l2 1c-3.949-.564-6.709-1.743-10-4v-1Z"/><path fill="#1E2840" d="m51 187 2 1v2c-2.354 1.43-3.48 2.087-6.25 1.625L45 191l6-4Z"/><path fill="#262C42" d="M550 185h5v4h-3l-2-4Z"/><path fill="#858994" d="m314 171 2 1c-2.076 3.945-2.822 4.911-7 7l5-8Z"/><path fill="#656978" d="M618 167c2.252 2.688 3.882 4.646 5 8l-4-1-1-7Z"/><path fill="#777A86" d="M160 166c1.5 1.375 1.5 1.375 3 3v2l3 1c-1.875.625-1.875.625-4 1-2-2-2-2-2.125-4.625L160 166Z"/><path fill="#676B7B" d="M225 135c-1.75 2.063-1.75 2.063-4 4-2.25-.25-2.25-.25-4-1 1.855-3.71 4.208-4.264 8-3Z"/><path fill="#414858" d="m163 134 3 1-1 3h-5l1-3 2-1Z"/></svg>