<svg xmlns="http://www.w3.org/2000/svg" width="567" height="440"><path fill="#F69E1A" d="m163.395-.203 2.744-.017c1.917-.01 3.834-.016 5.751-.02 2.875-.01 5.75-.04 8.624-.073 15.1-.087 29.158 1.557 43.611 6.125l2.539.789c18.15 5.742 35.989 13.514 50.973 25.439 2.858 2.285 2.858 2.285 6.34 3.003 3.003-1.548 5.71-3.47 8.46-5.418C307.817 19.119 324.197 11.397 342 6l2.118-.644c14.793-4.403 28.955-5.708 44.3-5.672 2.813.003 5.625-.02 8.437-.045 46.531-.163 88.908 21.021 121.957 52.924C539.067 73.627 554.119 99.906 562 128l.74 2.522c4.209 14.922 4.737 29.579 4.76 44.978l.014 2.84c.03 15.78-1.55 30.673-6.327 45.785l-.788 2.539C546.561 270.404 516.841 308.38 476 330c-29.935 15.42-60.455 21.93-94 21l-3.703-.09c-31.21-1.488-64.147-13.65-88.681-32.849-3.045-2.392-3.045-2.392-6.741-3.03-2.26 1.168-4.213 2.505-6.25 4.031-5.717 4.1-11.69 7.602-17.854 10.97a467.597 467.597 0 0 0-4.935 2.75C233.073 343.894 208.544 350.422 185 351l-2.232.062c-19.937.49-38.529-1.797-57.768-7.062a3376.8 3376.8 0 0 0-3.852-1.05C103.645 337.612 86.598 329.03 72 318l-1.954-1.476C56.64 306.265 43.91 294.742 34 281l-2.316-3.21C20.27 261.524 11.758 243.996 6 225l-.644-2.118C.888 207.87-.35 193.715-.316 178.154a891.61 891.61 0 0 0-.045-8.654c-.053-15.088 1.609-29.185 6.173-43.625l.789-2.539C20.26 80.162 49.744 42.311 90.01 20.81c3.95-2.04 7.955-3.944 11.989-5.809l3.523-1.652C119.15 7.22 133.331 3.594 148 1l2.617-.523c4.277-.603 8.464-.659 12.778-.68Z"/><path fill="#E9001B" d="m163.395-.203 2.744-.017c1.917-.01 3.834-.016 5.751-.02 2.875-.01 5.75-.04 8.624-.073 15.1-.087 29.158 1.557 43.611 6.125l2.539.789c17.573 5.56 34.35 13.236 49.524 23.774l1.8 1.226c1.617 1.172 1.617 1.172 4.012 3.399 0 4 0 4-1.68 5.922l-2.195 1.828-2.18 1.86C274 46 274 46 272 46l-.688 1.75C270 50 270 50 267.66 51.844c-2.626 2.129-4.483 4.232-6.535 6.906-2.557 3.282-5.158 6.466-7.938 9.563A48.833 48.833 0 0 0 247 77l-2.348 3.203c-2.506 3.492-4.57 7.13-6.464 10.984l-1.02 2.065c-6.961 14.392-12.5 29.185-16.168 44.748l-.969 3.86c-5.227 23.414-3.562 50.989 1.969 74.14l.666 2.798c2.887 11.733 6.751 22.49 12.334 33.202l2.305 4.523c.792 1.535 1.586 3.07 2.382 4.602l1.117 2.155c2.083 3.925 4.317 7.31 7.196 10.72a525.493 525.493 0 0 1 4.188 5.625l2.105 2.852C256 285 256 285 257 288l3 1a71.252 71.252 0 0 1 2.813 4.375c3.67 5.498 8.133 9.077 13.387 12.957 2.834 2.093 4.824 3.704 6.8 6.668-21.763 23.94-62.828 36.166-94.191 37.875-22.064.724-42.466-1.035-63.809-6.875a3376.8 3376.8 0 0 0-3.852-1.05C103.645 337.612 86.598 329.03 72 318l-1.954-1.476C56.64 306.265 43.91 294.742 34 281l-2.316-3.21C20.27 261.524 11.758 243.996 6 225l-.644-2.118C.888 207.87-.35 193.715-.316 178.154a891.61 891.61 0 0 0-.045-8.654c-.053-15.088 1.609-29.185 6.173-43.625l.789-2.539C20.26 80.162 49.744 42.311 90.01 20.81c3.95-2.04 7.955-3.944 11.989-5.809l3.523-1.652C119.15 7.22 133.331 3.594 148 1l2.617-.523c4.277-.603 8.464-.659 12.778-.68Z"/><path fill="#FE5900" d="M283 37c5.155 2.525 8.284 5.192 11.918 9.598 2.549 2.94 5.3 5.622 8.082 8.34C315.809 67.57 315.809 67.57 317 74h2l2 6h2c5.825 8.254 9.944 17.785 14 27l.825 1.84c4.509 10.14 7.116 20.281 9.175 31.16l.652 3.387c7.394 41.287.684 85.754-21.652 121.613a265.52 265.52 0 0 1-6.168 8.492c-1.776 2.43-3.297 4.92-4.832 7.508a157.767 157.767 0 0 1-3.063 4.313l-1.535 2.113L309 289h-2l-.688 1.688c-1.68 2.959-3.88 4.936-6.312 7.312l-2.438 3.063c-2.636 3.022-5.21 4.773-8.562 6.937a139.281 139.281 0 0 0-5 5 540.535 540.535 0 0 1-5.582-4.172 337.223 337.223 0 0 0-4.93-3.656c-5.453-4.11-9.254-8.215-12.976-13.934-1.523-2.408-1.523-2.408-4.012-4.738-3.028-3.028-5.293-6.33-7.691-9.867a102.951 102.951 0 0 0-3.461-4.766c-6.16-8.088-10.075-17.405-14.287-26.6a123.866 123.866 0 0 0-2.674-5.322C214.714 210.905 211.964 169.017 220 138l.602-2.45c5.041-20.21 12.688-42.5 26.074-58.84 1.412-1.742 1.412-1.742 2.625-3.983 2.207-3.543 4.84-6.583 7.574-9.727l1.566-1.828c3.055-3.54 6.24-6.876 9.559-10.172l1.813-2.438c2.483-2.909 5.18-4.927 8.285-7.132 1.807-1.358 3.348-2.793 4.902-4.43Z"/><path fill="#131313" d="M61.375 392.375c2.633 1.394 4.513 2.513 6.625 4.625l2.063-1.813C75.666 391.014 81.002 389.05 88 390c6.571 1.374 10.209 4.556 14 10 1.64 3.279 1.12 6.906 1.098 10.508l-.005 2.547c-.005 2.69-.018 5.38-.03 8.07A6319.916 6319.916 0 0 1 103 440H91l-.028-2.75c-.045-3.39-.106-6.777-.18-10.165a458.116 458.116 0 0 1-.063-4.388c-.022-2.11-.068-4.22-.12-6.33l-.063-3.84C89.91 408.416 88.62 406.199 86 403c-2.461-.83-2.461-.83-5.063-.563l-2.597.06c-2.745.59-3.659 1.288-5.34 3.503-1.164 3.492-1.211 6.391-1.316 10.074l-.063 2.072c-.066 2.18-.125 4.361-.183 6.541l-.131 4.44A4578.93 4578.93 0 0 0 71 440H59l-.06-2.766c-.078-3.402-.165-6.803-.257-10.204-.039-1.47-.073-2.939-.105-4.408a939.879 939.879 0 0 0-.164-6.352l-.095-3.857c-.322-3.449-.769-6.863-3.319-9.413-2.454-.355-2.454-.355-5.313-.438l-2.925-.183c-3.005.38-3.005.38-4.897 3.2-2.134 3.914-2.401 6.356-2.474 10.788l-.05 2.06c-.049 2.15-.07 4.298-.091 6.448a1612.88 1612.88 0 0 1-.09 4.398c-.073 3.576-.123 7.151-.16 10.727-1.812.027-3.625.046-5.438.063l-3.058.035C28 440 28 440 27 439a70.194 70.194 0 0 1-.114-4.52v-2.912l.016-3.166.005-3.224c.005-3.413.018-6.827.03-10.24A10214.733 10214.733 0 0 1 27 391h12l1 4 2.313-1.938c6.198-4.757 12.432-3.95 19.062-.687Z"/><path fill="#0A0A0A" d="M529 373h11v67h-11l-1-4-2.125 2c-5.251 3.5-11.872 2.666-17.875 2-7.613-2.03-11.8-7.7-16-14-1.77-6.742-1.833-14.06.063-20.75 4.258-7.144 8.423-11.903 16.457-14.625 6.446-1.624 11.099-.772 16.914 2.402C527 394 527 394 528 395l1-22Zm-23.813 32.938c-2.446 4.25-2.523 8.192-2.187 13.062 1.732 4.65 3.758 7.397 8 10 4.176 1.16 6.51 1.141 10.688-.063 4.308-2.52 6.453-5.02 7.878-9.859 1.125-6.11-.745-10.31-4.129-15.453-6.63-4.42-14.83-3.48-20.25 2.313Z"/><path fill="#0F0F0F" d="m147 393 1 1 1-3h12v49h-12l-1-3-2.188 1.5c-6.032 2.966-13.61 2.577-19.843.48-2.5-1.188-4.763-2.307-6.969-3.98l-1-3h-2a913.776 913.776 0 0 1-1.938-4.25l-1.09-2.39c-2.942-7.138-2.664-14.022-.007-21.188 3.246-6.81 8.14-10.438 15.035-13.172 7.015-2.338 12.472-.863 19 2Zm-21 12c-2.76 4.72-3.592 8.572-3 14 1.732 4.65 3.758 7.397 8 10 4.208 1.169 6.495 1.154 10.688-.125 3.598-2.037 5.28-3.282 7.312-6.875 1.652-6.062 1.153-10.455-2-16-1.797-2.731-3.079-3.752-6.234-4.602-6.25-.965-9.841-.418-14.766 3.602Z"/><path fill="#0D0D0D" d="M431.434 393.027C433 394 433 394 434 395l1-4h11v49h-11l-1-4-2.125 2c-5.254 3.503-11.869 2.66-17.875 2-6.597-1.689-11.318-6.407-15-12-3.006-7.3-3.045-15.25-.938-22.813 7.563-12.442 19.412-19.781 33.372-12.16Zm-20.247 12.91c-2.446 4.25-2.523 8.193-2.187 13.063 1.732 4.65 3.758 7.397 8 10 4.176 1.16 6.51 1.141 10.688-.063 4.308-2.52 6.453-5.02 7.878-9.859 1.125-6.11-.745-10.31-4.128-15.453-6.631-4.42-14.831-3.48-20.25 2.313Z"/><path fill="#121212" d="M298 393c5.369 4.515 8.621 9.106 10 16v12h-34c3.524 6.023 3.524 6.023 9 8 6.052.488 9.585-.345 15-3l3-1 5 7c-.968 2.438-1.664 3.77-3.855 5.266-8.142 3.436-17.045 4.327-25.672 2.074-7.066-3.133-11.534-9.384-14.473-16.34-1.227-9.2-.574-17.396 5-25 7.778-9.048 20.772-10.607 31-5Zm-22 12-2 5h23c-1.725-4.811-1.725-4.811-4-8-6.358-2.12-12.302-2.268-17 3Zm-65-10c-1.335 3.594-2.96 6.755-5 10l-2.125-.656c-5.82-1.708-10.808-2.886-16.875-2.344l-3 2v3c2.671 1.336 5.16 1.445 8.125 1.813 6.892 1.028 11.703 2.91 17.313 6.937 2.914 4.197 2.837 8.529 2.062 13.375-2.428 4.653-6.089 7.62-10.715 10.027-3.684 1.122-7.22 1.188-11.035 1.16l-2.288-.008c-7.001-.131-12.517-1.34-18.462-5.304.645-3.485 2.101-6.028 4-9 2.83.515 5.452 1.15 8.188 2.063 6.116 1.504 12.206 2.185 17.812-1.063l-1-4-3.727-.734-4.898-1.016-2.45-.477c-6.024-1.273-10.432-3.149-14.773-7.718-2.146-3.827-1.743-7.811-1.152-12.055 2.525-5.453 5.768-7.477 11-10 9.815-3.05 20.128-.648 29 4Z"/><path fill="#0C0B0C" d="M227 377h11v14h17v11h-17c.114 3.771.24 7.542.375 11.313l.094 3.248.117 3.115.095 2.872c.168 2.705.168 2.705 2.319 5.452 4.549.298 8.562.11 13-1 2.978 6.195 2.978 6.195 3.063 9.313-1.702 2.701-4.058 2.86-7.063 3.687-5.734.605-11.863 1.068-17.125-1.625-4.001-3.305-5.673-6.442-6.216-11.626l.048-3.46.03-3.77c.024-1.285.05-2.57.076-3.894l.04-3.965c.036-3.22.085-6.44.147-9.66h-9v-11h9v-14Z"/><path fill="#101010" d="m390 393 3 2c-.565 3.958-1.809 6.666-4 10-2.358-.544-4.445-1.186-6.688-2.125-5.515-1.457-10.283-1.04-15.25 1.813-2.965 3.324-4.03 6.043-4.093 10.523.247 3.715.827 6.39 2.531 9.726 3.572 2.947 6.879 3.938 11.5 4.063 2.452-.592 4.646-1.365 6.957-2.371 2.461-.758 3.669-.58 6.043.371 3.118 3.978 3.118 3.978 2.766 7.027-1.138 2.932-3.218 3.945-5.989 5.207-7.153 1.972-16.65 2.259-23.464-.921-5.604-3.523-9.685-8.224-12.313-14.313-.584-2.793-.669-5.465-.625-8.313l.025-2.256c.27-6.62 1.976-11.533 6.6-16.431 9.775-8.145 21.535-9.111 33-4Z"/><path fill="#151515" d="M348 390c1.16 3.479.775 4.342-.438 7.688l-.87 2.449L346 402l-2.266-.14-2.984-.11-2.953-.14c-3.67.512-4.566 1.456-6.797 4.39-.418 2.667-.605 4.941-.61 7.61l-.05 2.202c-.048 2.313-.07 4.625-.09 6.938-.028 1.572-.058 3.143-.09 4.715-.074 3.845-.123 7.69-.16 11.535h-12v-48h12v3l3.375-2c4.876-2.481 9.263-2.396 14.625-2Z"/><path fill="#0C0C0C" d="M488 390c1.456 4.52.27 7.516-1 12l-2.266-.14c-5.988-.37-5.988-.37-11.359 1.827-2.58 4.339-2.533 8.973-2.691 13.926l-.127 3.78-.12 3.92-.13 3.978A4495.53 4495.53 0 0 0 470 439h-11v-48h11l1 3 2.875-2c4.585-2.674 8.961-2.374 14.125-2Z"/><path fill="#EEAF51" d="M435 345c-3.604 2.119-7.375 2.832-11.438 3.563l-2.165.391C401.112 352.488 378.1 352.77 358 348v-1c2.167-.027 4.333-.047 6.5-.063l3.656-.035c3.3.084 6.448.424 9.714.869 3.994.43 7.992.376 12.005.354l2.759-.01c14.106-.106 28.562-3.702 42.366-3.115Z"/><path fill="#FD4410" d="M220 138h1c.38 2.326.713 4.66 1 7l-1 1c-1.923 9.605-2.285 19.042-2.188 28.813l.002 3.771c-.416 10.987-.416 10.987 2.186 21.416.07 1.874.084 3.75.063 5.625l-.028 3.04L221 211h-1c-5.208-22.94-5.626-50.095 0-73Z"/><path fill="#D83948" d="m204 344 15 1c-3.834 1.917-7.22 2.811-11.375 3.563l-2.157.391c-13.424 2.335-26.89 2.169-40.468 2.046v-1l2.52-.152c3.125-.192 6.25-.39 9.376-.593 2.001-.127 4.003-.248 6.004-.368 6.878-.45 13.466-.955 20.1-2.887l1-2Z"/><path fill="#F1A42E" d="M528 65c6.98 6.326 12.864 14.548 17 23l-1 2h-2l-5-10h-5c-.93-2.606-1.15-3.642-.063-6.25L533 72h-5v-7Z"/><path fill="#E40A0A" d="M239 84h2c-.654 3.048-1.681 5.602-3.074 8.387l-1.266 2.571-1.347 2.73C230.819 106.924 227.15 116.23 224 126h-1c-.775-6.978 1.955-11.84 5-18 2.492-5.332 4.621-10.6 6.29-16.25C235 90 235 90 237 89a70.134 70.134 0 0 0 1-4l1-1Z"/><path fill="#EDAF51" d="M557 116c3.372 3.372 3.835 8.091 5 12.625l.811 3.121c2.11 8.386 3.464 16.64 4.189 25.254-2-1-2-1-3.063-4.09-1.312-5.023-1.784-10.141-2.375-15.289-.644-4.15-1.683-7.862-3.562-11.621l-2 2c-.082-4.161.018-7.947 1-12Z"/><path fill="#EDAF4C" d="M472 331c-3.455 2.885-7.279 4.66-11.375 6.438l-2.118.921c-6.63 2.814-13.424 5.245-20.507 6.641l-2-1 3.313-1.313c2.333-.975 3.545-1.528 5.25-3.437L446 338c3.188.313 3.188.313 6 1v-2h6v-2h5v-2c3.435-2.29 4.985-2.178 9-2Z"/><path fill="#F2B14C" d="M566 181h1c.554 15.254-1.548 29.382-6 44h-1v-14l3-1c.736-6.516 1.416-13.037 2.063-19.563l.275-2.767L566 181Z"/><path fill="#D73143" d="M212 3c10.278 2.39 20.134 5.239 30 9l-2 2-2.313-1.063c-2.735-1.26-2.735-1.26-5.687.063-2.188-.438-2.188-.438-4-1l1-2-5-1V7l-3.75.25c-2.11.14-2.11.14-4.25-.25-2.266-2.016-2.266-2.016-4-4Z"/><path fill="#FC4410" d="m256 64 1 2-2.313 2.688c-2.2 2.63-3.957 5.347-5.687 8.312l-2 2a303.489 303.489 0 0 0-2.215 5.2c-1.05 2.41-2.382 4.58-3.785 6.8l-1.563 2.813L238 96h-2c1.333-4.436 3.087-8.2 5.438-12.188l1.808-3.105c1.465-2.26 2.814-3.884 4.754-5.707l1.375-2.313c1.937-3.203 4.184-5.85 6.625-8.687Z"/><path fill="#F3A438" d="M526 283c2.063.438 2.063.438 4 1-4.575 6.014-9.066 11.302-15 16l1-7 3-1 2-3 3-1c.662-1.98.662-1.98 1-4l1-1Z"/><path fill="#D7374A" d="M3 212c1.984 1.207 1.984 1.207 4 3 .39 2.262.39 2.262.25 4.688l-.11 2.449L7 224l3 1-.188 1.938c.225 3.664 1.285 6.64 2.532 10.074C13 239 13 239 13 241h2v6c-2.117-2.117-2.64-3.34-3.621-6.113l-.892-2.517-.925-2.683-.945-2.717C6.258 226.058 4.376 219.18 3 212Z"/><path fill="#E40C11" d="M276 31c3 1.75 3 1.75 6 4 0 4 0 4-2.375 6.75C277 44 277 44 275 44l-1-6h4l-1-2-3-1v-2h2v-2Z"/><path fill="#F2AA3F" d="M375 0v2l-7 1-1 3c-1.666.043-3.334.04-5 0l-1-1a69.603 69.603 0 0 0-4.063-.563L353 4c3.4-1.979 6.563-2.56 10.438-3.125l3.37-.508A57.236 57.236 0 0 1 375 0Z"/><path fill="#EEA540" d="M492 31c6.684 4.262 12.88 8.966 19 14-3 1-3 1-6 0-.688-2.063-.688-2.063-1-4h-3v-2l-1.688-.375C496.78 37.94 494.421 37.009 492 36v-5Z"/><path fill="#D12E3F" d="m99 16 2 1-5.371 2.93c-1.795.984-1.795.984-2.629 3.07a160.565 160.565 0 0 1-7 3l1 4-2.75-.563c-2.933-.394-4.514-.384-7.25.563 3.668-4.279 8.257-6.64 13.125-9.313l2.496-1.416 2.387-1.322 2.176-1.208L99 16Z"/><path fill="#D81E32" d="M233 339c2.343-.26 4.682-.574 7-1-3.364 2.243-6.757 3.387-10.563 4.625l-2.076.695C222.267 345 222.267 345 220 345v-2h3v-2c2.632-4.18 5.623-2.73 10-2Z"/><path fill="#DA1B2E" d="m260 321 2 2 2.688-1c3.021-.912 5.196-1.183 8.312-1-9.429 8-9.429 8-14 8-.625-2.313-.625-2.313-1-5l2-3Z"/><path fill="#FD8D17" d="m319 274 1 2c-1.92 3.954-4.7 7.03-7.586 10.293-1.575 1.804-1.575 1.804-3.039 4.52-1.539 2.448-2.707 3.175-5.375 4.187l3-6h2l.688-1.625c1.728-3.128 4.021-5.637 6.312-8.375a110.247 110.247 0 0 0 3-5Zm-18 22 2 1-4 2 2-3Z"/><path fill="#EFAB45" d="M308 21v2h-3v2h-2v2a197.417 197.417 0 0 1-5 3l-1.625 1.688C295 33 295 33 292 33l-3-1c2.457-1.647 4.916-3.293 7.375-4.938l2.117-1.42 2.031-1.357 1.873-1.254C304.401 21.742 305.583 21 308 21Z"/><path fill="#EFB052" d="M421 2c10.335.725 20.227 3.652 30 7-3 2-3 2-5.188 1.625L444 10V8l-2.23-.148-2.957-.227c-.963-.07-1.926-.14-2.918-.21-2.932-.42-5.19-1.24-7.895-2.415a382.608 382.608 0 0 0-7-2V2Z"/><path fill="#D72D43" d="m2 140 1 4 3-1 1 5-4-1 .105 2.117.083 2.758.105 2.742L3 157l-3 2c.491-6.366.997-12.693 2-19Z"/><path fill="#DB3749" d="M34 69h1l1 6-5 1v3h-2l.25 2.25C29 84 29 84 27.125 86.313 25 88 25 88 23 88c1.397-5.024 3.571-8.698 6.563-12.875l1.248-1.797c1.031-1.465 2.106-2.9 3.189-4.328Z"/><path fill="#EDAE52" d="M330 339c3.922-.357 6.383.561 9.906 2.207 3.381 1.28 6.882 1.73 10.446 2.266 2.733.544 5.097 1.417 7.648 2.527v1c-6.256-.341-11.948-1.693-17.938-3.438l-2.296-.658C332.25 341.25 332.25 341.25 330 339Z"/><path fill="#FD480F" d="M277 43c0 3 0 3-1.793 4.867l-2.394 2.008-2.493 2.137L268 54a87.782 87.782 0 0 0-9 10l-2-1c4.301-5.622 8.393-10.667 14-15l2.25-2.25C275 44 275 44 277 43Z"/><path fill="#F2AA3C" d="M507 303h5c-2.98 4.011-5.937 7.122-10 10-2.375-.188-2.375-.188-4-1v-3l2.25-.813c2.626-1.134 4.58-2.339 6.75-4.187v-1Z"/><path fill="#D82B45" d="M86 326c6.53 1.758 6.53 1.758 9.063 3.063 2.578 1.247 5.115 1.552 7.937 1.937v3h2v2c-4.627-1.392-8.647-3.295-12.875-5.625l-3.492-1.914L86 327v-1Z"/><path fill="#E5100C" d="M273 305c3.941 1.668 6.79 4.227 10 7-1.584 3.167-2.453 4.733-5.688 6.313L275 319v-2h2v-2h2v-5l-1.875-.938L273 307v-2Z"/><path fill="#D22B3F" d="M156 0v2c-2.645 1.322-4.678 1.097-7.625 1.063l-3.04-.028L143 3v2h-10c3.108-1.554 4.8-2.302 8.04-2.852l2.257-.39 2.328-.383 2.352-.406C153.67 0 153.67 0 156 0Z"/><path fill="#D92F45" d="M8 118h1a640.408 640.408 0 0 1-.313 7.75l-.068 2.21C8.41 132.157 8.145 135.05 5 138H3l5-20Z"/><path fill="#D7243C" d="m16 246 1 4h3l1 7h2l1 5-2 1a784.566 784.566 0 0 1-3.563-6.813L17.4 254.24c-.877-1.71-1.645-3.473-2.4-5.24l1-3Z"/><path fill="#DA3648" d="m0 191 3 1v18H2c-.34-2.04-.671-4.083-1-6.125l-.563-3.445C.03 197.239-.078 194.212 0 191Z"/><path fill="#D7273D" d="M66 312c3.083 1.199 6.063 2.477 9 4v2l1.938.313L79 319l1 3c-3.809-1.346-6.654-3.054-9.813-5.563l-2.394-1.878L66 313v-1Z"/><path fill="#EFAA41" d="M526 283c2.063.438 2.063.438 4 1a1270.542 1270.542 0 0 1-3.438 4.5l-1.933 2.531L523 293h-1v-5h2l.438-1.938C525 284 525 284 526 283Z"/><path fill="#DA364A" d="M192 0c6.029.512 12.02 1.07 18 2v1h-17l-1-3Z"/><path fill="#D72B42" d="M260 21a653.25 653.25 0 0 1 5.25 2.75c.975.51 1.95 1.02 2.953 1.547 2.712 1.651 4.665 3.368 6.797 5.703l-2 1-2-1v-2h-3v-2l-2.875-.75C262 25 262 25 260.805 22.922L260 21Z"/><path fill="#DD1830" d="M230 9c1.627.282 3.251.576 4.875.875l2.742.492C240 11 240 11 242 13l-2 1-2.438-1c-2.618-1.337-2.618-1.337-5.562 0-2.188-.438-2.188-.438-4-1l2-3Z"/><path fill="#F0A83F" d="M557 116c2.495 2.495 2.36 3.673 2.625 7.125l.227 2.758L560 128l-2-2-2 2c-.082-4.161.018-7.947 1-12Z"/><path fill="#EFAC51" d="M470 18c4.42 1.857 8.73 3.813 13 6v1c-4.729-.464-8.181-1.08-12-4l-1-3Z"/><path fill="#FC470E" d="M229 109c1.264 3.596.74 6.053-.25 9.688l-.766 2.949L227 124l-3 1c.455-1.73.914-3.46 1.375-5.188l.773-2.917c.8-2.717 1.755-5.286 2.852-7.895Z"/><path fill="#EEAC44" d="m298 323 10 2v4c-4.43-1.208-6.981-2.517-10-6Z"/><path fill="#EFA73B" d="M323 15c-2.125 2.563-2.125 2.563-5 5-3.313-.188-3.313-.188-6-1 6.851-5.383 6.851-5.383 11-4Z"/><path fill="#EFA83F" d="M446 338h3c-.191 1.887-.191 1.887-1 4-2.215 1.082-2.215 1.082-4.938 1.813l-2.714.769C438 345 438 345 436 344l3.313-1.313c2.845-1.202 4.551-2.445 6.687-4.687Z"/><path fill="#D43044" d="M49 297c3.918 1.306 6.326 2.831 9 6v2l2 1c-3 0-3 0-5.043-1.715l-2.145-2.223-2.167-2.214C49 298 49 298 49 297Z"/><path fill="#EDB051" d="M538 78c2.64 3.186 5.105 6.31 7 10l-1 2h-2a301.229 301.229 0 0 1-2-3.75l-1.125-2.11C538 82 538 82 538 78Z"/><path fill="#E60E0A" d="m257 60 3 1-9 10c0-2.664.092-4.523 1-7l3-1 2-3Z"/><path fill="#EDA43B" d="M561 210h2c.226 5.419-.533 9.775-2 15h-1c-.027-2.312-.046-4.625-.063-6.938l-.035-3.902C560 211 560 211 561 210Z"/><path fill="#F46C04" d="M325 86c3.915 3.356 6.08 7.28 8 12v2h-2l-1-6h-2c-3-5.75-3-5.75-3-8Z"/><path fill="#D62239" d="M77 30v3c-2.228 2.228-3.658 2.692-6.625 3.625-.817.26-1.635.52-2.477.79L66 38c7.784-8 7.784-8 11-8Z"/><path fill="#D32E3F" d="M110 338c6.26-.432 9.09.073 14 4-2 1-2 1-4.82.223l-3.305-1.16-3.32-1.153L110 339v-1Z"/><path fill="#DC2A3F" d="M26 268h5l2 10c-3.336-2.99-5.15-5.932-7-10Z"/><path fill="#EDAB4C" d="m538 268 3 1c-.975 1.503-1.955 3.002-2.938 4.5l-1.652 2.531L535 278h-1v-5h3l1-5Z"/><path fill="#D8414F" d="M13 105c1.38 3.836.943 7.084 0 11-2.05 1.21-2.05 1.21-4 2l1.438-4.813.808-2.707A215.38 215.38 0 0 1 13 105Z"/><path fill="#ECB563" d="M547 93c3.253 3.741 5.444 8.313 7 13l-1 2a578.983 578.983 0 0 1-3-5.25l-1.688-2.953C547 97 547 97 547 93Z"/><path fill="#EDAE4C" d="M528 65c2.964 2.808 5.445 5.183 7 9l-7-2v-7Z"/><path fill="#DD1A34" d="M83 25c2.125.938 2.125.938 4 2l-1 3-2.25-.563c-2.7-.429-4.196-.288-6.75.563 3.75-3.875 3.75-3.875 6-5Z"/><path fill="#DC2739" d="m276 31 6 4-2 2-6-2v-2h2v-2Z"/><path fill="#E62135" d="m2 140 1 4 3-1 1 5-5-2v-6Z"/><path fill="#D6253C" d="M37 283c4.875 1.875 4.875 1.875 6 3 .04 1.666.043 3.334 0 5-4.875-4.625-4.875-4.625-6-8Z"/><path fill="#F0A538" d="M295.75 29.313 298 30c-1.313 1.5-1.313 1.5-3 3-3 0-3 0-6-1 2.455-2.273 3.338-3.075 6.75-2.688Z"/><path fill="#D82A40" d="M124 8c-1 1.5-1 1.5-3 3-2.718.273-5.257.135-8 0 7.286-4.857 7.286-4.857 11-3Z"/><path fill="#D20B1C" d="M206 3h6l1 2c-1.977.73-3.98 1.394-6 2l-2-1 1-3Z"/><path fill="#D42A3A" d="M125 343a195.61 195.61 0 0 1 4.375-.188l2.46-.105L134 343l2 3c-4.116-.475-7.364-1.021-11-3Z"/><path fill="#EFB351" d="m480 323 5 1c-5.143 4.429-5.143 4.429-9 5l1-3h3v-3Z"/><path fill="#D62434" d="M66 38v2h-2l-.375 1.938L63 44l-2 1-2-2c4.75-5 4.75-5 7-5Z"/><path fill="#EEAF4C" d="M320 335h7l2 4-9-3v-1Z"/><path fill="#D22931" d="M279 313h3c-1.098 2.993-1.677 3.846-4.625 5.25L275 319v-2h2v-2h2v-2Z"/><path fill="#F0AF55" d="m503 39 8 6c-3 1-3 1-6 0-1.188-3.063-1.188-3.063-2-6Z"/><path fill="#F36E05" d="M286 40c1.75.125 1.75.125 4 1 2.25 3.063 2.25 3.063 4 6l-5-2v-2h-2l-1-3Z"/><path fill="#F1AF4A" d="m483 25 7 4-3 3c-2-3-2-3-2-5h-2v-2Z"/><path fill="#D43749" d="M242 13c4.128.607 7.332 2.038 11 4-3 1-3 1-5.5.25-2.37-1.185-3.784-2.263-5.5-4.25Z"/><path fill="#EDAC4D" d="m545 259 1 2c-.777 1.727-.777 1.727-1.938 3.625-.68 1.114-1.36 2.228-2.062 3.375h-1v-6h3l1-3Z"/><path fill="#F46802" d="m328 257 2 1-5 8-1-3c1.938-3.188 1.938-3.188 4-6Z"/><path fill="#D83948" d="M19 255h2v2h2l1 5-2 1c-3-5.75-3-5.75-3-8Z"/><path fill="#D82239" d="M34 69h1l1 6-5 1c1.875-4.75 1.875-4.75 3-7Z"/></svg>