<svg xmlns="http://www.w3.org/2000/svg" width="918" height="226"><path fill="#01152B" d="m222.354 83.807 2.732-.049c4.13-.044 8.259-.085 12.389-.108 2.176-.017 4.353-.044 6.529-.082 3.14-.055 6.278-.077 9.418-.091l2.936-.07c4.168.014 7.702.108 11.258 2.448 3.472 4.58 3.213 8.384 3.11 13.993l.004 3.178a516.244 516.244 0 0 1-.058 6.64c-.047 3.389-.04 6.775-.027 10.164-.012 2.152-.026 4.303-.043 6.455l.005 3.072c-.141 7.008-.141 7.008-2.52 10.25-10.053 6.709-30.134 3.66-41.962 3.205l-2.299-.054c-4.818-.257-7.43-1.33-10.826-4.758-1.17-2.34-1.145-3.763-1.177-6.37l-.039-2.742-.022-2.97-.025-3.05c-.014-2.132-.024-4.265-.032-6.398-.017-3.259-.061-6.517-.105-9.777-.01-2.07-.019-4.142-.026-6.213l-.053-2.951c.014-4.369.051-6.833 2.38-10.622 2.955-2.685 4.561-3.037 8.453-3.1Z"/><path fill="#F93A29" d="M304 56c7 5 7 5 10 8v2h2c2.125 1.875 2.125 1.875 4 4v2h2v2h2v2h2v2h2v2h2v2l1.875.75c2.476 1.456 3.076 2.628 4.125 5.25h2v2h2a207.388 207.388 0 0 1 4 5l2.563 2.375c5.323 5.733 5.982 11.068 5.8 18.68-.682 5.534-3.333 9.4-6.363 13.945h-2l-.75 1.875c-1.456 2.476-2.628 3.076-5.25 4.125v2h-2l-.75 1.875c-1.456 2.476-2.628 3.076-5.25 4.125v2h-2l-.75 1.875c-1.456 2.476-2.628 3.076-5.25 4.125v2h-2l-.75 1.875c-1.456 2.476-2.628 3.076-5.25 4.125v2h-2l-.625 1.75C310 166 310 166 304 170V56Z"/><path fill="#F69729" d="M249.563 3.063C258.132 7.893 265.53 14.613 272 22v2l1.75.75c2.58 1.433 4.311 3.034 6.25 5.25v2l1.75.75c2.58 1.433 4.311 3.034 6.25 5.25v2l1.797.777c2.397 1.33 3.714 2.682 5.453 4.785l1.578 1.88C298 49 298 49 298 50H184c3.957-4.617 7.857-8.966 12.188-13.188 4.003-3.882 4.003-3.882 7.55-8.175L205 27h2l2-4h2l.813-1.938C213 19 213 19 216 18l1-3c1.468-1.272 2.943-2.54 4.469-3.742 1.667-1.3 1.667-1.3 3.344-3.32 7.137-6.322 15.778-7.551 24.75-4.875Z"/><path fill="#08CEE8" d="m179 56-.494 3.886c-.552 4.998-.634 9.92-.604 14.945l.005 2.842c.004 2.02.01 4.04.018 6.06.013 3.198.02 6.397.024 9.596.011 6.786.03 13.572.051 20.359.024 7.877.044 15.754.056 23.632.006 3.147.019 6.294.032 9.442l.01 5.795.015 2.64c0 4.386-.228 8.485-1.113 12.803-3.918-.536-5.335-2.169-7.824-5.148-3.91-4.501-7.995-8.724-12.258-12.891l-1.898-1.866a1658.73 1658.73 0 0 0-7.822-7.65 1039.553 1039.553 0 0 1-5.78-5.672l-1.774-1.702c-5.601-5.565-9.19-11.815-9.738-19.782.46-11.229 8.675-19.193 16.25-26.605l2.016-2c2.105-2.088 4.216-4.168 6.328-6.246 2.111-2.084 4.22-4.169 6.328-6.257 1.303-1.292 2.61-2.58 3.92-3.867 3.55-3.512 6.82-7.1 9.898-11.035C176 56 176 56 179 56Z"/><path fill="#159C88" d="m299 176-2 3h-2l-.813 1.938C293 183 293 183 290 184v2c-1.496 1.438-1.496 1.438-3.438 3-2.714 2.145-2.714 2.145-4.562 5h-2v2a207.388 207.388 0 0 1-5 4c-2.71 2.584-4.921 4.881-7 8h-2v2c-2.5 2.519-5.282 4.721-8 7l-2.438 2.25c-5.516 3.768-11.907 5.582-18.562 4.75-5.967-1.82-10.541-4.81-15.004-9.129-1.95-1.93-1.95-1.93-4.273-3.398-3.294-2.46-5.363-4.52-6.131-8.687-.243-2.65-.332-5.251-.342-7.911l-.01-2.641c.19-5.5 1.073-8.914 4.76-13.234 3.666-2.444 5.481-2.267 9.855-2.303l2.1-.026c2.292-.025 4.585-.037 6.877-.05a4077.504 4077.504 0 0 1 17.401-.164c6.72-.051 13.438-.117 20.157-.188 2.343-.023 4.687-.039 7.03-.055l4.337-.04 3.808-.03c3.433-.07 3.433-.07 6.763-.717C297 175 297 175 299 176Z"/><path fill="#081729" d="m395.977 73.734 2.074-.005c1.451-.002 2.902.002 4.353.01 2.192.01 4.384 0 6.576-.012 19.287-.02 19.287-.02 27.02 6.273 5.865 6.19 6.4 12.592 6.25 20.805-.444 5.677-1.888 9.539-5.563 14.007-5.863 4.773-11.139 6.323-18.546 6.286l-3.38-.01-3.511-.025-3.559-.014c-2.897-.012-5.794-.028-8.691-.049l.016 2.43c.02 3.628.034 7.255.046 10.882l.026 3.827.01 3.662.016 3.38C399 148 399 148 398 151c-7.734 1.29-7.734 1.29-12-1a7297.35 7297.35 0 0 1-.155-28.842c-.016-4.463-.037-8.927-.071-13.39-.033-4.306-.05-8.611-.059-12.917-.005-1.645-.016-3.29-.032-4.935a686.951 686.951 0 0 1-.024-6.896l-.02-3.97L386 76c3.693-2.462 5.571-2.258 9.977-2.266ZM399 86a86.924 86.924 0 0 0-1.125 14.313l-.008 3.675c-.075 2.935-.075 2.935 1.133 5.012 3.917.058 7.833.094 11.75.125 1.111.017 2.222.034 3.367.05l3.242.02 2.984.032c2.781-.238 4.342-.692 6.657-2.227 2.395-3.592 3.078-6.745 3-11-.956-3.562-2.365-6.365-5-9-3.394-.91-6.58-1.12-10.082-1.098l-2.822.01-2.909.025-2.966.014c-2.407.012-4.814.028-7.221.049Z"/><path fill="#09182A" d="M596 97c2.5 2.5 2.5 2.5 4 5l1.188 1.938c2.085 5.293 2.032 11.057 2.199 16.671l.077 2.449c.052 1.698.101 3.395.149 5.093.075 2.605.165 5.21.256 7.814.049 1.652.096 3.305.143 4.957l.088 2.364c.045 1.904-.018 3.81-.1 5.714-2.787 2.787-5.154 2.657-9 3-2.784-1.392-2.979-3.156-4-6l-1.54.805-2.085 1.07-2.04 1.055c-8.044 3.686-17.063 4.69-25.726 2.453-4.005-1.968-6.236-5.062-7.949-9.043-1.683-5.965-1.555-12.035.84-17.778 2.963-5.066 7.269-6.538 12.645-8.242 8.113-2.018 16.56-1.493 24.855-1.32-.768-5.31-.768-5.31-3.68-9.48-8.313-1.862-17.372-1.147-25.27 1.921-2.428.662-3.718.459-6.05-.441-1.746-2.327-2.026-3.592-1.84-6.5.84-2.5.84-2.5 2.95-3.828l2.64-.922c.861-.315 1.722-.63 2.61-.953C572.034 91.575 586.275 90.779 596 97Zm-30.785 31.395c-1.909 2.522-2.152 4.47-2.215 7.605 1.205 3.049 1.205 3.049 4 5 7.011 1.701 14.647-1.148 21-4 1.867-1.303 1.867-1.303 3-3 .38-4.654.38-4.654-1-9-13.03-.831-13.03-.831-24.785 3.395Z"/><path fill="#061528" d="M489 97c6.018 4.943 8.427 11.305 9.352 18.879.277 5.491.277 5.491-.352 8.121-2.966 3.158-4.613 3.956-8.964 4.454-1.54 0-3.08-.023-4.618-.063l-2.467-.018a700.622 700.622 0 0 1-7.764-.123c-1.76-.02-3.519-.038-5.279-.055A1448.59 1448.59 0 0 1 456 128c.451 1.295.911 2.588 1.375 3.879l.773 2.182c1.118 2.546 2.414 3.644 4.852 4.939 8.36 2.787 16.449.954 24.406-2.223 2.746-.823 3.985-.91 6.594.223 1.455 2.91 1.45 4.78 1 8-7.59 6.992-18.276 7.698-28.145 7.352-6.637-.606-11.458-2.528-16.73-6.54-4.3-5.69-6.615-11.675-7.125-18.812l-.156-2.012c-.361-8.38 1.194-17.845 6.566-24.523C459.635 91.044 477.277 89.58 489 97Zm-30.813 11.813c-1.602 2.669-1.602 2.669-2.187 8.187h30c0-5.01-.04-6.25-3-10-7.395-5.361-18.364-4.636-24.813 1.813Z"/><path fill="#151F2F" d="m744.129 68.77 2.433.043 2.442.019C751 69 751 69 752 70c.093 1.443.117 2.89.114 4.336v2.79l-.016 3.034-.005 3.09c-.005 3.27-.018 6.542-.03 9.813-.006 2.211-.01 4.423-.014 6.634-.011 5.435-.028 10.869-.049 16.303 5.741-4.651 11.46-9.284 16.875-14.313 9.194-8.52 9.194-8.52 12.512-9.113l2.3.114 2.325.074C788 93 788 93 790 94c-.428 4.832-2.275 6.63-5.875 9.75l-2.988 2.617c-3.897 3.304-7.89 6.49-11.922 9.625-2.135 1.935-3.163 3.358-4.215 6.008l2.5 1.875L770 126v2l1.7.703c2.887 1.628 4.816 3.66 7.112 6.047 2.976 3.054 5.93 5.95 9.25 8.625 2.91 2.6 3.325 3.07 3.938 6.625-3.726 2.484-5.587 2.38-10 2-3.618-1.884-6.506-4.185-9.5-6.938l-2.594-2.37a7082.24 7082.24 0 0 1-6.375-5.915l-1.775-1.646a1063.875 1063.875 0 0 1-3.465-3.232c-2.913-2.769-2.913-2.769-6.291-4.899.01.686.02 1.373.032 2.08.041 3.098.067 6.196.093 9.295.017 1.08.034 2.16.05 3.273l.02 3.125.032 2.889C752 150 752 150 750 152c-6.104.555-6.104.555-8.7-1.053-1.98-2.966-1.71-5.969-1.672-9.416l-.011-2.297c-.008-2.507.005-5.013.02-7.52 0-1.739 0-3.479-.002-5.218 0-3.646.01-7.292.029-10.938.023-4.68.023-9.36.016-14.04-.003-3.591.004-7.183.013-10.775.004-1.726.005-3.452.004-5.178 0-2.409.012-4.817.028-7.225l-.007-2.175c.075-6.926.075-6.926 4.41-7.395Z"/><path fill="#0D1C2D" d="M721.414 95.656c3.57 3.026 5.125 6.962 6.586 11.344.096 1.416.138 2.837.145 4.256l.02 2.589.003 2.784.01 2.865c.005 1.998.007 3.996.007 5.994.002 3.066.02 6.132.04 9.198.003 1.939.005 3.878.005 5.818l.022 2.79-.01 2.58.005 2.273C728 150 728 150 726 152c-4.336.315-6.327.449-10-2a78.485 78.485 0 0 1-.406-8.55l-.033-2.58c-.034-2.727-.05-5.455-.061-8.183-.015-3.58-.048-7.158-.094-10.738l.01-2.488c-.06-4.583-.31-7.82-3.416-11.461-7.726-1.964-14.586-.408-21.464 3.594-1.955 1.79-2.127 2.793-2.375 5.408a118.81 118.81 0 0 0 .042 4.85l-.016 2.591c-.011 2.729.023 5.454.063 8.182.019 2.735.028 5.469.02 8.203-.003 1.7.01 3.402.043 5.102.008 2.326.008 2.326-.313 6.07-3.47 2.313-4.925 2.34-9 2l-3-2c-.399-2.329-.399-2.329-.432-5.276l-.06-3.336-.02-3.615-.054-3.69c-.054-3.903-.088-7.805-.121-11.708-.034-2.64-.068-5.281-.104-7.922-.085-6.484-.153-12.968-.209-19.453 3.215-1.607 6.436-1.057 10-1l2 5 2.266-1.059 2.984-1.379 2.953-1.37c8.055-3.432 18.486-4.1 26.211.464Z"/><path fill="#0E1C2E" d="m525.813 92.813 2.08-.038c4.676-.013 8.655.633 13.107 2.225l2 2c-.543 6.087-.543 6.087-2 9l-3.125-.5c-6.228-.773-12.619-.984-18.875-.5-2.287 1.839-2.287 1.839-2.125 4.625L517 112c5.72 2.724 11.557 4.288 17.695 5.84 4.832 1.696 7.517 3.872 10.18 8.222 1.854 4.916 1.236 9.9.125 14.938-2.395 4.879-5.147 7.573-10 10-9.578 2.794-20.26 2.824-29.25-1.938C503 147 503 147 502 144c1.25-3.125 1.25-3.125 3-6 3.424-1.141 3.783-.884 6.938.438 5.516 1.953 11.278 2.625 17.062 1.562 2.515-1.577 2.515-1.577 4-4-.14-2.707-.14-2.707-1-5l-2.492-.734C508.73 124.028 508.73 124.028 505 119c-2.008-6.023-2.05-12.74.625-18.5 6.253-6.582 11.465-7.68 20.188-7.688Z"/><path fill="#041428" d="m619.438 68.813 2.433-.043C624 69 624 69 626 71c.278 2.822.278 2.822.319 6.47l.03 2.01c.031 2.197.048 4.393.065 6.59a3380.524 3380.524 0 0 1 .187 16.59c.04 4.088.091 8.177.141 12.266.097 8.024.181 16.05.258 24.074 4.391.702 7.67.99 12 0l2 1c.594 2.649.742 5.292 1 8-5.902 4.68-11.671 4.688-19 4-5.118-2.335-6.883-4.89-9-10-.367-3.448-.367-3.448-.356-7.275l-.007-2.125c-.003-2.3.016-4.6.035-6.9l.006-4.81c.004-3.35.019-6.7.04-10.05.03-4.302.04-8.604.044-12.906.005-3.305.014-6.61.026-9.916.006-1.587.01-3.174.015-4.762.006-2.21.02-4.419.036-6.628l.02-3.815c.222-4.444 1.534-3.968 5.578-4Z"/><path fill="#0E1D2D" d="m659 93 3 2c.381 2.315.381 2.315.388 5.244l.029 3.317-.019 3.595.01 3.677c.001 2.569-.004 5.138-.017 7.707-.016 3.944 0 7.887.02 11.831a6205.11 6205.11 0 0 1-.013 7.473l.019 3.595-.029 3.317-.007 2.929L662 150c-3.669 2.446-5.672 2.236-10 2l-2-1V94c3.019-1.51 5.673-1.175 9-1Z"/><path fill="#021226" d="M742 70c6.152-.098 6.152-.098 8 0 1.595 1.595 1.149 3.277 1.174 5.488l.04 2.892.032 3.147.1 6.526c.047 3.448.092 6.895.13 10.343.04 3.315.092 6.63.145 9.944l.026 3.14.05 2.903.031 2.561c.09 2.279.09 2.279 2.272 4.056l-2.688 1.688c-3.155 2.09-5.71 4.558-8.312 7.312l-2-1c-.023-7.397-.04-14.795-.052-22.192-.005-3.435-.012-6.87-.023-10.304-.013-3.947-.018-7.893-.023-11.84l-.015-3.747V77.46l-.007-3.055C741 72 741 72 742 70Z"/><path fill="#081728" d="M454 127h39v1h-37c2.131 7.263 2.131 7.263 7 11 8.36 2.787 16.449.954 24.406-2.223 2.746-.823 3.985-.91 6.594.223 1.455 2.91 1.45 4.78 1 8-7.59 6.992-18.276 7.698-28.145 7.352-6.821-.622-11.684-2.535-16.918-6.915C448 143 448 143 447 140h3l1-4 7 2-1.438-2.125C455 133 455 133 454 127Z"/><path fill="#122131" d="M432 78c3.826 1.503 5.7 3.628 8 7 2.914 7.363 3.347 15.924.813 23.5-3.063 5.914-6.727 8.91-12.813 11.5-3.33 1.048-6.378 1.115-9.86 1.098l-3.378-.01-3.512-.025-3.559-.014c-2.897-.012-5.794-.028-8.691-.049l.016 2.43c.02 3.628.034 7.255.046 10.882l.026 3.827.01 3.662.016 3.38C399 148 399 148 398 151l-8 1c2.647-1.46 3.894-2 7-2v-30c10.375-.313 10.375-.313 13.642-.388l2.569-.1 2.634-.08c2.541-.245 2.541-.245 4.155-3.432 2.059-.328 2.059-.328 4.438-.25l2.37.047C429 116 429 116 432 117v-3l-4 1 1.5-2.063c1.804-3.532 1.73-6.023 1.5-9.937l-1.188 2.438C428 108 428 108 425.313 108.811L423 109l1.91-.676c2.295-1.167 2.295-1.167 3.024-3.68 1.13-6.35 1.304-10.007-1.934-15.644l-1-2h3l-1-2 1.938-.688c2.334-1.165 2.334-1.165 2.812-3.937L432 78Z"/><path fill="#218974" d="m299 176-2 3h-2l-.813 1.938C293 183 293 183 290 184v2c-1.496 1.438-1.496 1.438-3.438 3-2.714 2.145-2.714 2.145-4.562 5h-2v2a207.388 207.388 0 0 1-5 4c-2.71 2.584-4.921 4.881-7 8h-2v2c-2.5 2.519-5.282 4.721-8 7l-2.438 2.25c-5.516 3.768-11.907 5.582-18.562 4.75-5.967-1.82-10.541-4.81-15.004-9.129-1.95-1.93-1.95-1.93-4.273-3.398-3.294-2.46-5.363-4.52-6.131-8.687-.243-2.65-.332-5.251-.342-7.911l-.01-2.641c.19-5.5 1.073-8.914 4.76-13.234 3.666-2.444 5.481-2.267 9.855-2.303l2.1-.026c2.292-.025 4.585-.037 6.877-.05a4077.504 4077.504 0 0 1 17.401-.164c6.72-.051 13.438-.117 20.157-.188 2.343-.023 4.687-.039 7.03-.055l4.337-.04 3.808-.03c3.433-.07 3.433-.07 6.763-.717C297 175 297 175 299 176Zm-83 5c-2.737 4.314-2.262 9.251-2.188 14.188l.002 2.482c-.08 4.3-.08 4.3 1.186 8.33h2v2c1.477 1.28 2.96 2.555 4.488 3.773C223 213 223 213 224.5 214.563c4.426 4.242 9.596 7.378 15.82 7.472 7.384-.463 12.611-2.989 18.68-7.035v-4l2.313-.75c2.948-1.371 4.045-2.485 5.687-5.25v-2h2a140.075 140.075 0 0 0 5-5l2.75-2.563c2.132-2.31 2.91-3.379 3.25-6.437h3v-2l1.688-.125c3.578-1.354 5.033-3.836 7.312-6.875v-1c-9.17-.046-18.342-.082-27.513-.104-4.258-.01-8.517-.024-12.775-.047-4.111-.022-8.222-.034-12.333-.039-1.567-.003-3.134-.01-4.701-.021a936.233 936.233 0 0 0-6.593-.016l-3.788-.014c-3.237.237-5.431.748-8.297 2.241Z"/><path fill="#041224" d="m720 107 4 2v2l3-1c.025 5.82.043 11.641.055 17.462.005 1.982.012 3.964.02 5.945.013 2.843.018 5.685.023 8.527l.015 2.702c0 2.121-.05 4.243-.113 6.364-1 1-1 1-4.375 1.25-3.625-.25-3.625-.25-5.333-1.517-2.309-3.097-1.593-6.999-1.472-10.706l.059-2.663c.045-1.857.097-3.714.157-5.57.089-2.849.145-5.697.198-8.546.048-1.803.097-3.605.149-5.408l.048-2.592c.089-2.397.089-2.397.569-6.248l3-2Z"/><path fill="#0A1529" d="m762 116 3 2-2 4 7 4v2l1.7.703c2.887 1.628 4.816 3.66 7.112 6.047 2.976 3.054 5.93 5.95 9.25 8.625 2.91 2.6 3.325 3.07 3.938 6.625-3.726 2.484-5.587 2.38-10 2-9.052-4.715-18.284-13.601-24-22-.352-5.185 1.825-9.366 4-14Z"/><path fill="#E53C2F" d="M304 56c7 5 7 5 10 8v2h2c2.125 1.875 2.125 1.875 4 4v2h2v2c-2.375-.188-2.375-.188-5-1-1.313-2.563-1.313-2.563-2-5h-2l1 3-2.438 2.375c-4.016 4.115-3.727 7.155-3.767 12.655l-.03 2.513a2833.6 2833.6 0 0 0-.081 8.246l-.063 5.709c-.056 5.014-.105 10.028-.153 15.042-.05 5.114-.106 10.229-.161 15.343-.108 10.039-.21 20.078-.307 30.117h3l1.188-2.875c2.01-3.466 3.039-4.105 6.812-5.125v-2l4-1v2h-2l-.75 1.875c-1.456 2.476-2.628 3.076-5.25 4.125v2h-2l-.625 1.75C310 166 310 166 304 170V56Z"/><path fill="#14202F" d="M590 109h1c.381 1.991.713 3.993 1 6-1 1-1 1-3.941 1.098l-3.621-.035-3.63-.028L578 116v2c-4.302 4.767-4.302 4.767-8 6h21l1 2-2.352-.07c-8.154-.137-16.77-.26-24.648 2.07-1.456 1.96-1.456 1.96-2 4v-3c-3.435-.625-6.49-1-10-1 .125-2.75.125-2.75 1-6 8.07-6.757 17.866-7.175 27.938-7.063l2.36.014c1.901.012 3.802.03 5.702.049v-6Z"/><path fill="#CC9A51" d="m214 18 2 1-1.75 2.125c-2.287 2.833-2.287 2.833-4.188 5.875-2.11 3.07-4.367 5.437-7.062 8l-2.688 2.813C198 40 198 40 196 40l-1 3h-2l-1 3h-2v2l103-1-5-5v-2c3.18 1.376 5.049 2.9 7.25 5.563l1.578 1.878C298 49 298 49 298 50H184c3.957-4.617 7.857-8.966 12.188-13.188 4.003-3.882 4.003-3.882 7.55-8.175L205 27h2l2-4h2l.938-1.938C213 19 213 19 214 18Z"/><path fill="#172434" d="m484 102 7 1 2 6h-2l1 2 3-1-2-7c3.39 2.62 4.333 5.925 5 10 .687 7.343.687 7.343 0 11-2.023 1.828-2.023 1.828-4 3l1-1.813c1.208-2.24 1.208-2.24 1-5.187l-1 3c-3-1-3-1-4-2v3l2 1-5-1v-3c-3.564-2.198-6.594-2.305-10.734-2.414l-3.926-.117-4.09-.094-4.137-.117c-3.37-.094-6.742-.18-10.113-.258l1-3v2h30l-2-6c-.35-1.33-.691-2.66-1-4h3l1-4h-2l1 3h-2v-4Z"/><path fill="#323741" d="m619.438 68.813 2.433-.043C624 69 624 69 626 71c.24 2.746.24 2.746.227 6.286v1.951a955.87 955.87 0 0 1-.032 6.396 3136.176 3136.176 0 0 1-.058 16.1c-.02 3.968-.03 7.936-.04 11.904-.02 7.788-.055 15.575-.097 23.363l-2-1-1-66-7 1-1 71h-1c-.023-9.37-.04-18.74-.052-28.111-.005-4.35-.012-8.701-.023-13.052-.011-4.195-.017-8.39-.02-12.585-.002-1.604-.005-3.208-.01-4.812-.008-2.24-.009-4.478-.009-6.717l-.006-3.87c.189-4.482 1.483-4.008 5.558-4.04Z"/><path fill="#30B1BD" d="M176 56h3l-.494 3.886c-.552 4.998-.634 9.92-.604 14.945l.005 2.842c.004 2.02.01 4.04.018 6.06.013 3.198.02 6.397.024 9.596.011 6.786.03 13.572.051 20.359.024 7.877.044 15.754.056 23.632.006 3.147.019 6.294.032 9.442l.01 5.795.015 2.64c0 4.386-.228 8.485-1.113 12.803-2.726-.373-3.808-.792-5.703-2.848l-1.547-2.214-1.578-2.223L167 159c3.403 1.059 6.014 2.009 9 4V61c-7.06 6.005-7.06 6.005-12 13l-4-1 1.977-1.941c5.955-5.885 5.955-5.885 11.46-12.184L176 56Z"/><path fill="#131F2B" d="M269 95h1c.099 5.908.171 11.816.22 17.725.02 2.01.047 4.02.082 6.029.048 2.89.071 5.778.089 8.668l.062 2.721c.002 6.249.002 6.249-2.352 9.393-5.06 3.526-10.527 2.873-16.538 3.089l-3.674.132c-7.312.226-14.582.29-21.889-.07l-2.35-.104c-3.673-.228-5.523-.498-8.65-2.583l1-3 3 1v2h2l1-2 1 1c2.437.1 4.844.14 7.281.133l2.208.003c1.544 0 3.087-.001 4.63-.006 2.371-.005 4.741 0 7.111.007 1.497 0 2.993-.002 4.489-.004l2.162.006c3.344.277 3.344.277 6.119-1.139l2.75.188c4.2-.243 5.411-1.1 8.25-4.188.75-2.968.721-5.873.707-8.922l.046-2.606c.043-2.74.052-5.48.06-8.222.023-1.86.048-3.721.076-5.582.063-4.556.095-9.112.111-13.668Z"/><path fill="#122134" d="M569 93c19.255-.804 19.255-.804 27 4 1.758 1.637 1.758 1.637 3 3l-1 2-4-3-.313 2.375C593 104 593 104 590 106l-1 3-1.375-1.438c-3.3-3.172-6.907-2.88-11.25-3.124l-2.14-.131c-1.745-.106-3.49-.207-5.235-.307v-1l12-1-3-2v-2l-2-2 7-1-14-1v-1Z"/><path fill="#161D2B" d="m626 139 3.688.563c3.369.435 5.99.219 9.312-.563l2 1c.594 2.649.742 5.292 1 8-4.371 3.467-7.518 4.154-13.063 4.188l-3.222.042C623 152 623 152 621 150h8l-5-1v-2l-2-1 1-2c2.563-.625 2.563-.625 5-1l-2-4Z"/><path fill="#BF574A" d="M304 56c3 3 3 3 3.354 5.009l-.031 2.338-.013 2.69-.061 2.942-.028 3.105c-.035 3.393-.09 6.785-.147 10.178-.028 2.35-.054 4.7-.08 7.05-.07 6.19-.16 12.378-.252 18.568-.09 6.314-.165 12.628-.24 18.942A14778.9 14778.9 0 0 1 306 164c1.965-.276 1.965-.276 4-1l1.438-2.938C313 157 313 157 315.688 155.625L318 155v-2l4-1v2h-2l-.75 1.875c-1.456 2.476-2.628 3.076-5.25 4.125v2h-2l-.625 1.75C310 166 310 166 304 170V56Z"/><path fill="#031325" d="M535 132h1l1 6 2-1c-1.377 2.966-2.677 5.677-5 8-3.188.25-3.188.25-6 0 1.066 1.296 1.066 1.296 3.563 1.063L534 146v4c-3.502 1.751-7.442 1.216-11.25.688-2.123-.835-3.265-1.98-4.75-3.688l-3 1c-2-3-2-3-2-7l2.598.324c9.21 1.155 9.21 1.155 17.402-2.324 1.53-3.559 1.53-3.559 2-7Z"/><path fill="#212D39" d="m656 73.813 2.125-.043C660 74 660 74 662 76c.266 2.313.266 2.313.25 5l.016 2.688C662 86 662 86 660 88c-6.96.552-6.96.552-10-1.063-1.55-3.002-1.237-5.62-1-8.937l1-3c2.229-1.114 3.53-1.165 6-1.188Z"/><path fill="#0D182B" d="M517 95c2 1 2 1 3 3h-2l1 6-4 1-1 5-2-2-2-1v2l-5 2c-.468-4.679-.806-8.658 2.125-12.563C510 96 510 96 513.25 95.688L516 96l1-1Z"/><path fill="#182330" d="M770 128c3.74 1.547 6.025 3.853 8.813 6.75 2.975 3.054 5.93 5.95 9.25 8.625 2.91 2.6 3.324 3.07 3.937 6.625-3.726 2.484-5.587 2.38-10 2-4.6-2.2-4.6-2.2-6-5h3c1.237-2.038 2.041-3.401 1.875-5.816-1.282-3.2-3.456-5.008-5.938-7.371A344.74 344.74 0 0 1 770 129v-1Z"/><path fill="#DC9B4E" d="M249.938 3.313C252.544 4.748 254.016 5.885 256 8l-2.379-.656c-9.825-2.986-9.825-2.986-19.434-.844L232 8h-2l-.563 1.938C228 12 228 12 224.375 12.75L221 13l-1 3c-2.063 1.188-2.063 1.188-4 2 1.143-3.428 2.69-4.554 5.469-6.742 1.667-1.3 1.667-1.3 3.344-3.32 6.98-6.184 16.392-8.082 25.125-4.625Z"/><path fill="#D89D57" d="m214 18 2 1-1.75 2.125c-2.287 2.833-2.287 2.833-4.188 5.875-2.11 3.07-4.367 5.437-7.062 8l-2.688 2.813C198 40 198 40 196 40l-1 3h-2l-1 3h-2l1 3c-1 1-1 1-4.063 1.063L184 50c4.29-5.242 8.932-10.008 13.772-14.735 2.157-2.121 4.171-4.188 5.966-6.628L205 27h2l2-4h2l.938-1.938C213 19 213 19 214 18Z"/><path fill="#030D1D" d="M493.36 137.883 495 139c.375 2.75.375 2.75 0 6-3.345 3.1-5.309 3.955-9.875 4.25L482 149c.875-3.875.875-3.875 2-5l-3-1-1-2a300.587 300.587 0 0 1 5.25-2.125l2.953-1.195c2.797-.68 2.797-.68 5.156.203Z"/><path fill="#378E7F" d="M225.766 176.773h2.07c2.257 0 4.513.016 6.77.032l4.695.008c4.118.008 8.236.028 12.354.05 4.203.02 8.406.03 12.609.04 8.245.02 16.49.055 24.736.097v1l-2.6.025c-8.078.077-16.156.165-24.234.263-4.153.05-8.306.096-12.46.134-4.007.037-8.014.083-12.02.136-1.53.019-3.06.034-4.59.045-2.14.017-4.281.046-6.421.078l-3.695.04c-3.163.058-3.163.058-5.98 2.279-3.028 4.79-3.513 8.876-3.687 14.375l-.104 2.23A491.006 491.006 0 0 0 213 203h-1a538.444 538.444 0 0 1-.25-8.625l-.102-2.45c-.089-5.489.649-8.596 4.352-12.925 3.663-2.442 5.401-2.243 9.766-2.227Z"/><path fill="#D14F48" d="M350 104c3.124 4.686 2.583 9.513 2 15-1.384 4.114-3.605 7.408-6 11h-2l-.75 1.875c-1.456 2.476-2.628 3.076-5.25 4.125v2h-2l-.75 1.875c-1.456 2.476-2.628 3.076-5.25 4.125 1.875-4.75 1.875-4.75 3-7h3l.188-1.688c1.164-3.313 3.207-5.017 5.812-7.312l3-1c1.17-2.424 1.17-2.424 2-5l1-2h2v-16Z"/><path fill="#041626" d="m552 126 1 2 1.75-1.125c2.25-.875 2.25-.875 4.313-.063L561 128l3 1-1 6h-2v2h-3v3c-3.875-.875-3.875-.875-5-2a144.504 144.504 0 0 1-.563-6.063l-.253-3.347L552 126Z"/><path fill="#122032" d="m590 134 2 1c-2.052 2.248-3.007 3.002-6 4l3 3-2 1-1 2-4-1-1 4 8-2c-4.344 4.786-9.542 5.836-15.855 6.258-3.734.08-7.423.096-11.145-.258l-2-2 2.703.035 3.547.028 3.516.035c2.644-.08 4.732-.312 7.234-1.098l-1-3c2.128-2.34 4.116-3.707 7-5l-3-2 1.934-.84 2.504-1.097 2.496-1.09c2.01-.804 2.01-.804 3.066-1.973Z"/><path fill="#29BEC8" d="M133 102c1.271 2.543.91 3.883.563 6.688A90.402 90.402 0 0 0 133 121h2v3h2l1.188 2.125c1.646 2.612 2.86 3.899 5.187 5.813 3.363 2.776 6.09 5.498 8.625 9.062l-1 3c-2.6-2.483-5.177-4.99-7.75-7.5-.73-.696-1.46-1.392-2.21-2.11-6.272-6.157-10.442-12.15-11.157-21.07.204-4.034 1.569-7.62 3.117-11.32Z"/><path fill="#16212E" d="M214 87h2c-.875 4.75-.875 4.75-2 7h2l-1 34h-1l-1 8h-1c-.05-6.496-.086-12.992-.11-19.489-.01-2.21-.024-4.42-.04-6.631-.025-3.175-.036-6.35-.045-9.525l-.032-3.002v-2.79l-.014-2.456C212 90 212 90 214 87Z"/><path fill="#2C3540" d="m685 94 1 4-2-2a89.901 89.901 0 0 0-6-1l.563 3.438L679 102l-1 1a63.892 63.892 0 0 0-.13 4.304l-.009 2.771.006 3.015-.003 3.075c0 2.151.001 4.303.006 6.454.005 3.3 0 6.602-.007 9.902 0 2.086.002 4.171.004 6.256l-.006 3.009.01 2.78.002 2.454c.003 2.056.003 2.056 1.127 3.98l-3-1-1-55c3.215-1.607 6.436-1.057 10-1Z"/><path fill="#2E353F" d="M454 127h39v1h-37c2.131 7.263 2.131 7.263 7 11 3.162 1.054 5.87 1.313 9.188 1.563l3.292.253L478 141v1h-12l-1 4-4-1 3-3-2.813-1.688c-5.427-3.937-6.076-6.647-7.187-13.312Z"/><path fill="#0C1B2F" d="m626 139 3.875.875 2.18.492C634 141 634 141 636 143h3c-.375 2.438-.375 2.438-1 5-2.765 1.382-5.046 1.095-8.125 1.063l-3.32-.028L624 149v-2l-2-1 1-2c2.563-.625 2.563-.625 5-1l-2-4Zm9 5-2 2h3l-1-2Z"/><path fill="#131A2E" d="M560 97v3l4-1-1 3h-2v2l3 1h-2v2l-6 1c-1.941-2.718-3.016-4.297-2.938-7.688C554 98 554 98 555.938 96.626 558 96 558 96 560 97Z"/><path fill="#041024" d="M522 94h9v2h7l-1.063 2.875c-1.287 2.996-1.287 2.996.063 5.125l-12-1v-1h5v-3h-2v-2h-3v-2l-3-1Z"/><path fill="#051529" d="m509 111 2 2h-2v2l4-3c1.938.813 1.938.813 4 2l1 3c-1.404 2.264-3.197 4.02-5 6-3.507-1.896-5.945-3.538-8-7v-3c2 1 2 1 3 3l1-5Z"/><path fill="#C25C55" d="M305 148h1v16l4-1 1.438-2.938C313 157 313 157 315.688 155.625L318 155v-2l4-1v2h-2l-.75 1.875c-1.456 2.476-2.628 3.076-5.25 4.125v2h-2l-.625 1.75C310 166 310 166 304 170l1-22Z"/><path fill="#D6A260" d="M256 8c4.222 2.277 7.473 5.17 10.813 8.563l1.521 1.498C272 21.747 272 21.747 272 24l1.75.75c2.58 1.433 4.311 3.034 6.25 5.25v2l1.75.75c2.58 1.433 4.311 3.034 6.25 5.25v2c-2.438-.813-2.438-.813-5-2l-1-3-1.875-.875c-2.816-1.49-3.51-3.41-5.125-6.125a1067.19 1067.19 0 0 0-5-4 172.001 172.001 0 0 1-3.375-3.875c-2.857-3.366-5.874-6.171-9.34-8.898L256 10V8Z"/><path fill="#121F2D" d="m551 129 2 1c.228 2.017.454 4.035.66 6.055.223 2.072.223 2.072 1.715 3.945 1.733 1.262 1.733 1.262 4.625 1l-.563 3.375c-.754 3.45-.754 3.45.563 5.625-2.69-.598-4.477-1.347-6.223-3.527-3.253-5.703-3.202-11.044-2.777-17.473Z"/><path fill="#E03D32" d="M346 98c2.862 2.308 3.912 3.617 4.75 7.25.735 11.023.735 11.023-1.75 14.75-.648-2.228-1.294-4.458-1.938-6.688l-1.09-3.761c-.78-2.847-1.445-5.649-1.972-8.551h3l-1-3Z"/><path fill="#181E2F" d="m506 145 6 2-1 2c2.929-.628 5.361-1.586 8-3l.648 1.953c1.2 2.325 1.2 2.325 3.954 2.656l3.023.141 3.04.172L532 151v1c-7.89 1.337-17.25 1.767-24.387-2.39L506 148v-3Z"/><path fill="#020F1E" d="M484 97c4.69 1.34 7.473 3.914 10 8 .91 2.339 1.458 4.537 2 7l-5-1-1-3 2-1-1-3c-3.512-1.23-3.512-1.23-7-2v4l1-3h2l-1 6-5-5 2-1 1-3 1-1-1-2Z"/><path fill="#142131" d="M438 110c0 3 0 3-2.188 5.563-5.413 4.692-9.926 4.707-16.812 4.437 0-3 0-3 1-4a61.798 61.798 0 0 1 4.375-.125l2.398-.008C429 116 429 116 432 117v-3l-4 1 3-3 4 2 1-3 2-1Z"/><path fill="#041122" d="m510 98 2 1-2 2 5 2v6h-3v-2h-2v2l-5 2c-.603-6.025-.603-6.025 1.113-8.8 1.233-1.456 2.555-2.835 3.887-4.2Z"/><path fill="#0A1C2C" d="m484 102 7 1 2 6h-2v2l-6 1-2-5h3l1-4h-2l1 3h-2v-4Z"/><path fill="#2FBBC4" d="M159 74c0 3.52-.704 4.439-3 7h-2l-.188 1.813c-1.145 3.083-2.986 3.581-5.812 5.187-4.69 4.31-8.8 9.217-13 14 0-6.222 7.235-11.282 11.402-15.5 1.51-1.503 3.021-3.003 4.536-4.5l2.36-2.348c1.899-1.886 3.8-3.77 5.702-5.652Z"/><path fill="#18252E" d="M269 95h1c.05 5.927.086 11.853.11 17.78.01 2.016.024 4.033.04 6.05.025 2.896.036 5.793.045 8.69l.032 2.737v2.547l.014 2.24C270 137 270 137 268 140c-2-1-2-1-4-3l1.962-.948c3.13-3.15 2.641-6.673 2.647-10.876l.05-2.61c.05-2.752.07-5.502.091-8.254.028-1.865.058-3.73.09-5.595.074-4.572.123-9.144.16-13.717Z"/><path fill="#E1A14E" d="m214 18 2 1-1.75 2.125c-2.287 2.833-2.287 2.833-4.188 5.875-2.11 3.07-4.367 5.437-7.062 8l-2.813 2.813L198 40l-2-1 2.313-2.125c2.807-2.73 2.807-2.73 4.312-6.125C204 28 204 28 207 27c1.209-2 1.209-2 2-4h2l.938-1.938C213 19 213 19 214 18Z"/><path fill="#000D1B" d="M677 104h1l.076 3.808c.094 4.657.194 9.314.296 13.972.044 2.016.085 4.033.125 6.05.058 2.896.122 5.793.187 8.69l.05 2.737.06 2.547.048 2.24c.097 2.171.097 2.171 1.158 4.956l3 2c-4.875-.875-4.875-.875-6-2a62.057 62.057 0 0 1-.114-4.244v-2.73l.016-2.967.005-3.023c.005-3.2.018-6.399.03-9.599.006-2.163.01-4.326.014-6.49.011-5.316.028-10.631.049-15.947Z"/><path fill="#CC5451" d="m323 75 3 1v2h2v2h2v2l1.875.75c2.476 1.456 3.076 2.628 4.125 5.25h2v2h2l-1 2c-3.175-.34-4.023-1.025-6.25-3.438C331 86 331 86 331 84l-4-2v-2l-4-2v-3Z"/><path fill="#C99B5B" d="M288 40c3.18 1.376 5.049 2.9 7.25 5.563l1.578 1.878C298 49 298 49 298 50l-25-1v-1l20-1-5-5v-2Z"/><path fill="#192332" d="m484 143 2 1c-1 3-1 3-3 4l3 2c-5.315 1.774-9.856 2.258-15.438 2.125l-2.216-.027A626.5 626.5 0 0 1 463 152v-1h15l1-5c2.438-1.875 2.438-1.875 5-3Z"/><path fill="#030F1F" d="m762 116 3 2-2 4 2 1c-1 2-1 2-2 3-.761 2.389-.761 2.389-1 5l2 3c-2.468-1.152-4.048-2.048-6-4 .31-5.263 1.795-9.303 4-14Z"/><path fill="#050F25" d="M778 96c2 3 2 3 3 5l3 1-1.938.313L780 103l-1 3-8-3c2.22-2.908 3.93-4.953 7-7Z"/><path fill="#03101D" d="m770 103 4 4c-1.372 2.954-2.989 5.44-5 8l-2-1 2-7-4 4-2-2c3.625-4.875 3.625-4.875 7-6Z"/><path fill="#26313C" d="M464 93c10.21-.49 19.466-.744 27.625 6.25L493 101l-1 2-4.492-3.906c-1.467-1.29-1.467-1.29-3.508-1.094l-2 2-1-4-17-2v-1Z"/><path fill="#4BC0C8" d="M176 56h3l-2 4-1-1c-6.666 7.032-6.666 7.032-12 15l-4-1 1.977-1.941c5.955-5.885 5.955-5.885 11.46-12.184L176 56Z"/><path fill="#041222" d="M652 75h7c1.125 1.75 1.125 1.75 2 4-.875 2.25-.875 2.25-2 4-2.438-.813-2.438-.813-5-2l-1-3h-2l1-3Z"/><path fill="#252B38" d="m587 146 2 1c-1.437.648-2.874 1.293-4.313 1.938l-2.425 1.09c-4.37 1.878-8.137 2.155-12.824 2.16l-2.077.037c-1.788.005-3.576-.103-5.361-.225l-2-2 2.703.07 3.547.055 3.516.07c3.153-.19 4.552-.694 7.234-2.195 2.07-.379 2.07-.379 4.125-.563 3.664-.188 3.664-.188 5.875-1.437Z"/><path fill="#121E2F" d="m782 102 2 1c-6.143 6.714-6.143 6.714-11 7v-3l-2-2v-2c5.75.875 5.75.875 8 2l3-3Z"/><path fill="#010C19" d="M430 88c-3 0-3 0-5.315-.974-3.02-1.154-5.418-1.34-8.642-1.44l-3.37-.117-3.486-.094-3.544-.117c-2.881-.094-5.762-.18-8.643-.258v-1c4.104-.197 8.208-.38 12.313-.563l3.537-.17 3.388-.146 3.127-.143c4.754.04 7.107 2.066 10.635 5.022Z"/><path fill="#2DC0CA" d="M152 144c3.524.653 6.12 1.859 9 4a100.679 100.679 0 0 1 3 6c1.561 1.816 1.561 1.816 3 3l-1 2c-2.337-2.308-4.67-4.622-7-6.938l-2.023-1.998-1.915-1.904-1.777-1.761C152 145 152 145 152 144Z"/><path fill="#102135" d="M562 121c4 4 4 4 4 5l4 1-2.375.25c-2.772.478-2.772.478-3.938 2.813L563 132v-3l-6-1v-2l4-1v-3l1-1Z"/><path fill="#1C2434" d="m541 96 2 1c-.875 6.75-.875 6.75-2 9l-8-1 1-3h2l1-2 5 1-1-5Z"/><path fill="#1D806C" d="m257 215 2 1c-5.285 4.564-8.497 7.298-15.75 7.125l-2.984-.055L238 223v-1l1.906-.297c5.88-1.027 12.686-2.295 17.094-6.703Z"/><path fill="#1F2838" d="m526.375 92.875 2.23.027c1.799.024 3.597.06 5.395.098v1l-2.3.113-3.013.2-2.988.175c-2.943.558-3.88 1.197-5.699 3.512l-3-2-2 1-3-2c4.97-1.991 9.123-2.248 14.375-2.125Z"/><path fill="#07101A" d="m785 143 1 2a78.037 78.037 0 0 0 5 2v4c-6.055.195-6.055.195-8 0l-2-2 4-1v-5Z"/><path fill="#1A222F" d="M536 120c3.117.567 5.324 1.107 7.29 3.703 2.215 4.178 3.19 7.493 2.71 12.297-1.765-3.088-2-4.233-2-8l-1.875-.25C540 127 540 127 538.875 125l-.875-2-2-1v-2Z"/><path fill="#020A1A" d="M496 114h1c.473 8.193.473 8.193-1.5 11.563L494 127l-8-1 1.938-.813c2.393-1.074 2.393-1.074 3.062-4.187h3l2-7Z"/><path fill="#172033" d="M444 112c2 2.546 3.826 4.966 5 8l-1 3-3 1-1-4v7h-1c-.103-5.126-.036-9.95 1-15Z"/><path fill="#19222E" d="M544 136h1c-.262 4.457-.577 6.515-3.563 9.938L539 148l-1-7 4-2 1 1 1-4Z"/><path fill="#030E1F" d="m509 111 2 2h-2v2h2l-2 5c-2-1.813-2-1.813-4-4v-3c2 1 2 1 3 3l1-5Zm4 1 4 2v1h-6l2-3Z"/><path fill="#CF4D47" d="m311 63 3 1v2h2c2.125 1.875 2.125 1.875 4 4v2h2v2c-2.375-.188-2.375-.188-5-1a124.97 124.97 0 0 1-2-5c-2.041-.887-2.041-.887-4-1v-4Z"/><path fill="#010B1D" d="M592 123v1l-22 1-1-2c1.355-.09 1.355-.09 2.738-.184l3.574-.254 3.551-.246c8.373-.844 8.373-.844 13.137.684Z"/><path fill="#D14F48" d="m321 152 1 2h-2l-.75 1.875c-1.456 2.476-2.628 3.076-5.25 4.125v2h-3c.688-2.375.688-2.375 2-5 2.625-1.313 2.625-1.313 5-2v-2l3-1Z"/><path fill="#212831" d="m628 148 12 1c-3.349 3.349-6.535 3.16-11.063 3.188l-3.222.042C623 152 623 152 621 150h8l-1-2Z"/><path fill="#1C222B" d="M494 139h1c.375 2.75.375 2.75 0 6-2.813 2.438-2.813 2.438-6 4l-3-1h2v-2l-2-1c2.763-.597 5.16-1 8-1v-5Z"/><path fill="#040E1B" d="m651 81 1.688.938c2.437 1.12 4.674 1.622 7.312 2.062v2c-2.732 1.366-4.982 1.128-8 1-1-1-1-1-1.063-3.563L651 81Z"/><path fill="#408378" d="m299 176-2 3h-2l-2 4h-3l3-4-2-1v-2c5.75-1.125 5.75-1.125 8 0Z"/><path fill="#3EC2CF" d="M167 159c3.403 1.059 6.014 2.009 9 4 .188 2.625.188 2.625 0 5-4.55-1.517-6.5-5.169-9-9Z"/><path fill="#172330" d="m505 138 1 3h4l-1 3-5-1 2 5-3-1c-1-3-1-3 .438-6.188L505 138Z"/><path fill="#1A2531" d="M504 104h1l1 6 2-2 1 10c-3-3-3-3-4-5l-1 3v-12Z"/><path fill="#162333" d="m466 104-9 6v-6c3.069-1.534 5.7-.55 9 0Z"/><path fill="#162130" d="M463 95c-2.578 2.648-4.916 4.944-8 7l-1-2-1-1c5.23-5.59 5.23-5.59 10-4Z"/><path fill="#B35A4F" d="M304 56c3 3 3 3 3.249 5.268l-.175 2.619-.166 2.842-.22 2.959-.186 2.994c-.153 2.44-.321 4.88-.502 7.318h-1l-1-24Z"/><path fill="#38B3C2" d="M176 58c2 2 2 2 2.135 3.971l-.158 2.38-.157 2.579-.195 2.695-.172 2.719A806.35 806.35 0 0 1 177 79h-1c-.196-3.312-.38-6.625-.563-9.938l-.17-2.865-.146-2.724-.143-2.524C175 59 175 59 176 58Z"/><path fill="#101D2B" d="m660 146-1 6h-7v-2l6-2-3-1c3-1 3-1 5-1Z"/><path fill="#19202F" d="m684 146 3 1v4c-2.709 1.354-5.01 1.065-8 1l2-4h3v-2Z"/><path fill="#1D2932" d="m551 129 2 1c.674 4.112 1 7.83 1 12l-1-2h-2v-11Z"/><path fill="#1F2834" d="M757 123h2l-.25 3.25c-.112 3.79-.112 3.79 2.25 6.188l2 1.562-1 2-8-8 3-4v-1Z"/><path fill="#272E37" d="m708.563 92.813 3.44-.043C715 93 715 93 718 95a88.406 88.406 0 0 1-5 1l-1-1c-5.177-.37-5.177-.37-10 1-2.125-.938-2.125-.938-4-2 3.54-1.087 6.87-1.167 10.563-1.188Z"/><path fill="#121A29" d="M767.688 124.313 770 126v2c-3 1-3 1-6.188-.438L761 126c1.719-3.438 3.454-3.267 6.688-1.688Z"/><path fill="#16222D" d="M432 78c2.884 1.293 4.872 2.66 7 5l-1 2-1-1-2 3c-3-6.75-3-6.75-3-9Z"/><path fill="#1A293A" d="m467.355 140.61 3.832.14 3.856.11L478 141v1h-12l-1 4-4-1c1.775-3.352 2.497-3.941 6.355-4.39Z"/><path fill="#CE544D" d="m337 136 1 2h-2l-.75 1.875c-1.456 2.476-2.628 3.076-5.25 4.125 1.875-4.75 1.875-4.75 3-7 2.063-.625 2.063-.625 4-1Z"/><path fill="#010B1E" d="M578 116h12v2c-3.05 1.525-5.642 1.236-9 1l-3-3Z"/><path fill="#030C1F" d="m762 110 2 2c-3.406 3.746-7.346 5.19-12 7 3.17-3.26 6.4-6.222 10-9Z"/><path fill="#122333" d="m483 98 4 2-3 1-1 2h-2v-3h2v-2Zm-3 5 3 3c-3 0-3 0-6-2l3-1Z"/><path fill="#051121" d="M563.125 95.875 566 96l-1 3c-3.063 1.188-3.063 1.188-6 2l-1-3c2-2 2-2 5.125-2.125Z"/><path fill="#041426" d="m576 97 4 1h-2v2l3 1v1c-2.25.25-2.25.25-5 0-2.313-2-2.313-2-4-4l4 1v-2Z"/><path fill="#020D19" d="M453 128c2.586 1.293 2.637 2.257 3.563 4.938.735 2.1 1.441 4.07 2.437 6.062l-6-2 1-2c-.282-2.34-.613-4.675-1-7Z"/><path fill="#232E36" d="M269 129h1c.25 7.625.25 7.625-2 11-2-1-2-1-4-3l1.938-1.188c2.5-2.197 2.712-3.57 3.062-6.812Z"/><path fill="#1E2B36" d="M554 103c5.75 1.75 5.75 1.75 8 4-2.875.625-2.875.625-6 1l-2-2v-3Z"/><path fill="#030E1F" d="M573 94h11l-1 2c-2.066.414-2.066.414-4.563.625l-2.503.227L574 97l-1-3Z"/><path fill="#DCA752" d="M288 40c2.867 1.285 4.976 2.571 7 5v2c-2.375-.688-2.375-.688-5-2-1.313-2.625-1.313-2.625-2-5Z"/><path fill="#161F2B" d="M451 145h6l2 5c-5.75-1.625-5.75-1.625-8-5Z"/><path fill="#27313E" d="m695 101 4 1v2l8-1c-2.9 1.934-3.897 2.301-7.188 2.625L696 106l-1-5Z"/><path fill="#D1574E" d="M327 144h3v2h-2l-.75 1.875c-1.456 2.476-2.628 3.076-5.25 4.125v-2l3-2c1.192-2.05 1.192-2.05 2-4Z"/><path fill="#1B2733" d="m506 145 6 2-1 2 3 2c-5.75-.75-5.75-.75-8-3v-3Z"/><path fill="#091B31" d="m779 140 1 2 2 1-2 3-4-1c1.875-3.875 1.875-3.875 3-5Z"/><path fill="#1A252E" d="M425 87c2.938.75 2.938.75 6 2 1.063 1.938 1.063 1.938 1 4-1.438 1.75-1.438 1.75-3 3l-1.438-3.375c-.815-1.892-1.64-3.782-2.562-5.625Z"/><path fill="#D74443" d="m331 84 7 4v2h2l-1 2c-3.175-.34-4.023-1.025-6.25-3.438C331 86 331 86 331 84Z"/><path fill="#232C36" d="M264 85c2.468 1.152 4.048 2.048 6 4 .125 2.625.125 2.625 0 5-3.08-2.773-4.688-5.063-6-9Z"/><path fill="#071A31" d="m683 144 1 4h-3l-1 2-2-5c2-1 2-1 5-1Z"/><path fill="#0C162A" d="m492 139 1 4-9-1c2.513-2.513 4.489-3 8-3Z"/><path fill="#39C1CA" d="m166 67 2 1-4 6-4-1 6-6Z"/><path fill="#E39336" d="m218 16 2 1a417.694 417.694 0 0 1-2.875 3.5l-1.617 1.969L214 24h-2c1.443-3.366 3.333-5.51 6-8Z"/><path fill="#20806C" d="m279 192 2 2-5 5-2-2h2l.938-1.938C278 193 278 193 279 192Z"/><path fill="#020F25" d="M768 128c3.875 1.75 3.875 1.75 5 4l-7-1 2-3Z"/><path fill="#F84035" d="M348 107c2.29 3.435 2.178 4.985 2 9l-2 1c-1.125-7.75-1.125-7.75 0-10Z"/><path fill="#050E1C" d="M723 101c2 1 2 1 2.633 2.848l.492 2.215.508 2.222L727 110h-2v-4h-2l-1-3 1-2Z"/><path fill="#CE493E" d="m306 59 4 1v2h-3v6h-1v-9Z"/></svg>